<?xml version="1.0" encoding="utf-8" standalone="no"?>
<!DOCTYPE svg PUBLIC "-//W3C//DTD SVG 1.1//EN"
  "http://www.w3.org/Graphics/SVG/1.1/DTD/svg11.dtd">
<svg xmlns:xlink="http://www.w3.org/1999/xlink" width="1152pt" height="648pt" viewBox="0 0 1152 648" xmlns="http://www.w3.org/2000/svg" version="1.1">
 <metadata>
  <rdf:RDF xmlns:dc="http://purl.org/dc/elements/1.1/" xmlns:cc="http://creativecommons.org/ns#" xmlns:rdf="http://www.w3.org/1999/02/22-rdf-syntax-ns#">
   <cc:Work>
    <dc:type rdf:resource="http://purl.org/dc/dcmitype/StillImage"/>
    <dc:date>2023-05-18T18:14:21.884318</dc:date>
    <dc:format>image/svg+xml</dc:format>
    <dc:creator>
     <cc:Agent>
      <dc:title>Matplotlib v3.7.1, https://matplotlib.org/</dc:title>
     </cc:Agent>
    </dc:creator>
   </cc:Work>
  </rdf:RDF>
 </metadata>
 <defs>
  <style type="text/css">*{stroke-linejoin: round; stroke-linecap: butt}</style>
 </defs>
 <g id="figure_1">
  <g id="patch_1">
   <path d="M 0 648 
L 1152 648 
L 1152 0 
L 0 0 
z
" style="fill: #ffffff"/>
  </g>
  <g id="axes_1">
   <g id="patch_2">
    <path d="M 144 576.72 
L 1036.8 576.72 
L 1036.8 77.76 
L 144 77.76 
z
" style="fill: #ffffff"/>
   </g>
   <g id="matplotlib.axis_1">
    <g id="xtick_1">
     <g id="line2d_1">
      <defs>
       <path id="m6560d692f5" d="M 0 0 
L 0 12 
" style="stroke: #262626; stroke-width: 2.5"/>
      </defs>
      <g>
       <use xlink:href="#m6560d692f5" x="184.581818" y="576.72" style="fill: #262626; stroke: #262626; stroke-width: 2.5"/>
      </g>
     </g>
     <g id="text_1">
      <!-- 0 -->
      <g style="fill: #262626" transform="translate(176.708224 611.026133) scale(0.2475 -0.2475)">
       <defs>
        <path id="DejaVuSans-30" d="M 2034 4250 
Q 1547 4250 1301 3770 
Q 1056 3291 1056 2328 
Q 1056 1369 1301 889 
Q 1547 409 2034 409 
Q 2525 409 2770 889 
Q 3016 1369 3016 2328 
Q 3016 3291 2770 3770 
Q 2525 4250 2034 4250 
z
M 2034 4750 
Q 2819 4750 3233 4129 
Q 3647 3509 3647 2328 
Q 3647 1150 3233 529 
Q 2819 -91 2034 -91 
Q 1250 -91 836 529 
Q 422 1150 422 2328 
Q 422 3509 836 4129 
Q 1250 4750 2034 4750 
z
" transform="scale(0.015625)"/>
       </defs>
       <use xlink:href="#DejaVuSans-30"/>
      </g>
     </g>
    </g>
    <g id="xtick_2">
     <g id="line2d_2">
      <g>
       <use xlink:href="#m6560d692f5" x="325.735968" y="576.72" style="fill: #262626; stroke: #262626; stroke-width: 2.5"/>
      </g>
     </g>
     <g id="text_2">
      <!-- 20 -->
      <g style="fill: #262626" transform="translate(309.988781 611.026133) scale(0.2475 -0.2475)">
       <defs>
        <path id="DejaVuSans-32" d="M 1228 531 
L 3431 531 
L 3431 0 
L 469 0 
L 469 531 
Q 828 903 1448 1529 
Q 2069 2156 2228 2338 
Q 2531 2678 2651 2914 
Q 2772 3150 2772 3378 
Q 2772 3750 2511 3984 
Q 2250 4219 1831 4219 
Q 1534 4219 1204 4116 
Q 875 4013 500 3803 
L 500 4441 
Q 881 4594 1212 4672 
Q 1544 4750 1819 4750 
Q 2544 4750 2975 4387 
Q 3406 4025 3406 3419 
Q 3406 3131 3298 2873 
Q 3191 2616 2906 2266 
Q 2828 2175 2409 1742 
Q 1991 1309 1228 531 
z
" transform="scale(0.015625)"/>
       </defs>
       <use xlink:href="#DejaVuSans-32"/>
       <use xlink:href="#DejaVuSans-30" x="63.623047"/>
      </g>
     </g>
    </g>
    <g id="xtick_3">
     <g id="line2d_3">
      <g>
       <use xlink:href="#m6560d692f5" x="466.890119" y="576.72" style="fill: #262626; stroke: #262626; stroke-width: 2.5"/>
      </g>
     </g>
     <g id="text_3">
      <!-- 40 -->
      <g style="fill: #262626" transform="translate(451.142931 611.026133) scale(0.2475 -0.2475)">
       <defs>
        <path id="DejaVuSans-34" d="M 2419 4116 
L 825 1625 
L 2419 1625 
L 2419 4116 
z
M 2253 4666 
L 3047 4666 
L 3047 1625 
L 3713 1625 
L 3713 1100 
L 3047 1100 
L 3047 0 
L 2419 0 
L 2419 1100 
L 313 1100 
L 313 1709 
L 2253 4666 
z
" transform="scale(0.015625)"/>
       </defs>
       <use xlink:href="#DejaVuSans-34"/>
       <use xlink:href="#DejaVuSans-30" x="63.623047"/>
      </g>
     </g>
    </g>
    <g id="xtick_4">
     <g id="line2d_4">
      <g>
       <use xlink:href="#m6560d692f5" x="608.044269" y="576.72" style="fill: #262626; stroke: #262626; stroke-width: 2.5"/>
      </g>
     </g>
     <g id="text_4">
      <!-- 60 -->
      <g style="fill: #262626" transform="translate(592.297081 611.026133) scale(0.2475 -0.2475)">
       <defs>
        <path id="DejaVuSans-36" d="M 2113 2584 
Q 1688 2584 1439 2293 
Q 1191 2003 1191 1497 
Q 1191 994 1439 701 
Q 1688 409 2113 409 
Q 2538 409 2786 701 
Q 3034 994 3034 1497 
Q 3034 2003 2786 2293 
Q 2538 2584 2113 2584 
z
M 3366 4563 
L 3366 3988 
Q 3128 4100 2886 4159 
Q 2644 4219 2406 4219 
Q 1781 4219 1451 3797 
Q 1122 3375 1075 2522 
Q 1259 2794 1537 2939 
Q 1816 3084 2150 3084 
Q 2853 3084 3261 2657 
Q 3669 2231 3669 1497 
Q 3669 778 3244 343 
Q 2819 -91 2113 -91 
Q 1303 -91 875 529 
Q 447 1150 447 2328 
Q 447 3434 972 4092 
Q 1497 4750 2381 4750 
Q 2619 4750 2861 4703 
Q 3103 4656 3366 4563 
z
" transform="scale(0.015625)"/>
       </defs>
       <use xlink:href="#DejaVuSans-36"/>
       <use xlink:href="#DejaVuSans-30" x="63.623047"/>
      </g>
     </g>
    </g>
    <g id="xtick_5">
     <g id="line2d_5">
      <g>
       <use xlink:href="#m6560d692f5" x="749.198419" y="576.72" style="fill: #262626; stroke: #262626; stroke-width: 2.5"/>
      </g>
     </g>
     <g id="text_5">
      <!-- 80 -->
      <g style="fill: #262626" transform="translate(733.451231 611.026133) scale(0.2475 -0.2475)">
       <defs>
        <path id="DejaVuSans-38" d="M 2034 2216 
Q 1584 2216 1326 1975 
Q 1069 1734 1069 1313 
Q 1069 891 1326 650 
Q 1584 409 2034 409 
Q 2484 409 2743 651 
Q 3003 894 3003 1313 
Q 3003 1734 2745 1975 
Q 2488 2216 2034 2216 
z
M 1403 2484 
Q 997 2584 770 2862 
Q 544 3141 544 3541 
Q 544 4100 942 4425 
Q 1341 4750 2034 4750 
Q 2731 4750 3128 4425 
Q 3525 4100 3525 3541 
Q 3525 3141 3298 2862 
Q 3072 2584 2669 2484 
Q 3125 2378 3379 2068 
Q 3634 1759 3634 1313 
Q 3634 634 3220 271 
Q 2806 -91 2034 -91 
Q 1263 -91 848 271 
Q 434 634 434 1313 
Q 434 1759 690 2068 
Q 947 2378 1403 2484 
z
M 1172 3481 
Q 1172 3119 1398 2916 
Q 1625 2713 2034 2713 
Q 2441 2713 2670 2916 
Q 2900 3119 2900 3481 
Q 2900 3844 2670 4047 
Q 2441 4250 2034 4250 
Q 1625 4250 1398 4047 
Q 1172 3844 1172 3481 
z
" transform="scale(0.015625)"/>
       </defs>
       <use xlink:href="#DejaVuSans-38"/>
       <use xlink:href="#DejaVuSans-30" x="63.623047"/>
      </g>
     </g>
    </g>
    <g id="xtick_6">
     <g id="line2d_6">
      <g>
       <use xlink:href="#m6560d692f5" x="890.352569" y="576.72" style="fill: #262626; stroke: #262626; stroke-width: 2.5"/>
      </g>
     </g>
     <g id="text_6">
      <!-- 100 -->
      <g style="fill: #262626" transform="translate(866.731788 611.026133) scale(0.2475 -0.2475)">
       <defs>
        <path id="DejaVuSans-31" d="M 794 531 
L 1825 531 
L 1825 4091 
L 703 3866 
L 703 4441 
L 1819 4666 
L 2450 4666 
L 2450 531 
L 3481 531 
L 3481 0 
L 794 0 
L 794 531 
z
" transform="scale(0.015625)"/>
       </defs>
       <use xlink:href="#DejaVuSans-31"/>
       <use xlink:href="#DejaVuSans-30" x="63.623047"/>
       <use xlink:href="#DejaVuSans-30" x="127.246094"/>
      </g>
     </g>
    </g>
    <g id="xtick_7">
     <g id="line2d_7">
      <g>
       <use xlink:href="#m6560d692f5" x="1031.506719" y="576.72" style="fill: #262626; stroke: #262626; stroke-width: 2.5"/>
      </g>
     </g>
     <g id="text_7">
      <!-- 120 -->
      <g style="fill: #262626" transform="translate(1007.885938 611.026133) scale(0.2475 -0.2475)">
       <use xlink:href="#DejaVuSans-31"/>
       <use xlink:href="#DejaVuSans-32" x="63.623047"/>
       <use xlink:href="#DejaVuSans-30" x="127.246094"/>
      </g>
     </g>
    </g>
    <g id="text_8">
     <!-- Iterations -->
     <g style="fill: #262626" transform="translate(526.104141 640.689141) scale(0.27 -0.27)">
      <defs>
       <path id="DejaVuSans-49" d="M 628 4666 
L 1259 4666 
L 1259 0 
L 628 0 
L 628 4666 
z
" transform="scale(0.015625)"/>
       <path id="DejaVuSans-74" d="M 1172 4494 
L 1172 3500 
L 2356 3500 
L 2356 3053 
L 1172 3053 
L 1172 1153 
Q 1172 725 1289 603 
Q 1406 481 1766 481 
L 2356 481 
L 2356 0 
L 1766 0 
Q 1100 0 847 248 
Q 594 497 594 1153 
L 594 3053 
L 172 3053 
L 172 3500 
L 594 3500 
L 594 4494 
L 1172 4494 
z
" transform="scale(0.015625)"/>
       <path id="DejaVuSans-65" d="M 3597 1894 
L 3597 1613 
L 953 1613 
Q 991 1019 1311 708 
Q 1631 397 2203 397 
Q 2534 397 2845 478 
Q 3156 559 3463 722 
L 3463 178 
Q 3153 47 2828 -22 
Q 2503 -91 2169 -91 
Q 1331 -91 842 396 
Q 353 884 353 1716 
Q 353 2575 817 3079 
Q 1281 3584 2069 3584 
Q 2775 3584 3186 3129 
Q 3597 2675 3597 1894 
z
M 3022 2063 
Q 3016 2534 2758 2815 
Q 2500 3097 2075 3097 
Q 1594 3097 1305 2825 
Q 1016 2553 972 2059 
L 3022 2063 
z
" transform="scale(0.015625)"/>
       <path id="DejaVuSans-72" d="M 2631 2963 
Q 2534 3019 2420 3045 
Q 2306 3072 2169 3072 
Q 1681 3072 1420 2755 
Q 1159 2438 1159 1844 
L 1159 0 
L 581 0 
L 581 3500 
L 1159 3500 
L 1159 2956 
Q 1341 3275 1631 3429 
Q 1922 3584 2338 3584 
Q 2397 3584 2469 3576 
Q 2541 3569 2628 3553 
L 2631 2963 
z
" transform="scale(0.015625)"/>
       <path id="DejaVuSans-61" d="M 2194 1759 
Q 1497 1759 1228 1600 
Q 959 1441 959 1056 
Q 959 750 1161 570 
Q 1363 391 1709 391 
Q 2188 391 2477 730 
Q 2766 1069 2766 1631 
L 2766 1759 
L 2194 1759 
z
M 3341 1997 
L 3341 0 
L 2766 0 
L 2766 531 
Q 2569 213 2275 61 
Q 1981 -91 1556 -91 
Q 1019 -91 701 211 
Q 384 513 384 1019 
Q 384 1609 779 1909 
Q 1175 2209 1959 2209 
L 2766 2209 
L 2766 2266 
Q 2766 2663 2505 2880 
Q 2244 3097 1772 3097 
Q 1472 3097 1187 3025 
Q 903 2953 641 2809 
L 641 3341 
Q 956 3463 1253 3523 
Q 1550 3584 1831 3584 
Q 2591 3584 2966 3190 
Q 3341 2797 3341 1997 
z
" transform="scale(0.015625)"/>
       <path id="DejaVuSans-69" d="M 603 3500 
L 1178 3500 
L 1178 0 
L 603 0 
L 603 3500 
z
M 603 4863 
L 1178 4863 
L 1178 4134 
L 603 4134 
L 603 4863 
z
" transform="scale(0.015625)"/>
       <path id="DejaVuSans-6f" d="M 1959 3097 
Q 1497 3097 1228 2736 
Q 959 2375 959 1747 
Q 959 1119 1226 758 
Q 1494 397 1959 397 
Q 2419 397 2687 759 
Q 2956 1122 2956 1747 
Q 2956 2369 2687 2733 
Q 2419 3097 1959 3097 
z
M 1959 3584 
Q 2709 3584 3137 3096 
Q 3566 2609 3566 1747 
Q 3566 888 3137 398 
Q 2709 -91 1959 -91 
Q 1206 -91 779 398 
Q 353 888 353 1747 
Q 353 2609 779 3096 
Q 1206 3584 1959 3584 
z
" transform="scale(0.015625)"/>
       <path id="DejaVuSans-6e" d="M 3513 2113 
L 3513 0 
L 2938 0 
L 2938 2094 
Q 2938 2591 2744 2837 
Q 2550 3084 2163 3084 
Q 1697 3084 1428 2787 
Q 1159 2491 1159 1978 
L 1159 0 
L 581 0 
L 581 3500 
L 1159 3500 
L 1159 2956 
Q 1366 3272 1645 3428 
Q 1925 3584 2291 3584 
Q 2894 3584 3203 3211 
Q 3513 2838 3513 2113 
z
" transform="scale(0.015625)"/>
       <path id="DejaVuSans-73" d="M 2834 3397 
L 2834 2853 
Q 2591 2978 2328 3040 
Q 2066 3103 1784 3103 
Q 1356 3103 1142 2972 
Q 928 2841 928 2578 
Q 928 2378 1081 2264 
Q 1234 2150 1697 2047 
L 1894 2003 
Q 2506 1872 2764 1633 
Q 3022 1394 3022 966 
Q 3022 478 2636 193 
Q 2250 -91 1575 -91 
Q 1294 -91 989 -36 
Q 684 19 347 128 
L 347 722 
Q 666 556 975 473 
Q 1284 391 1588 391 
Q 1994 391 2212 530 
Q 2431 669 2431 922 
Q 2431 1156 2273 1281 
Q 2116 1406 1581 1522 
L 1381 1569 
Q 847 1681 609 1914 
Q 372 2147 372 2553 
Q 372 3047 722 3315 
Q 1072 3584 1716 3584 
Q 2034 3584 2315 3537 
Q 2597 3491 2834 3397 
z
" transform="scale(0.015625)"/>
      </defs>
      <use xlink:href="#DejaVuSans-49"/>
      <use xlink:href="#DejaVuSans-74" x="29.492188"/>
      <use xlink:href="#DejaVuSans-65" x="68.701172"/>
      <use xlink:href="#DejaVuSans-72" x="130.224609"/>
      <use xlink:href="#DejaVuSans-61" x="171.337891"/>
      <use xlink:href="#DejaVuSans-74" x="232.617188"/>
      <use xlink:href="#DejaVuSans-69" x="271.826172"/>
      <use xlink:href="#DejaVuSans-6f" x="299.609375"/>
      <use xlink:href="#DejaVuSans-6e" x="360.791016"/>
      <use xlink:href="#DejaVuSans-73" x="424.169922"/>
     </g>
    </g>
   </g>
   <g id="matplotlib.axis_2">
    <g id="ytick_1">
     <g id="line2d_8">
      <defs>
       <path id="m46028ff2d0" d="M 0 0 
L -12 0 
" style="stroke: #262626; stroke-width: 2.5"/>
      </defs>
      <g>
       <use xlink:href="#m46028ff2d0" x="144" y="572.016774" style="fill: #262626; stroke: #262626; stroke-width: 2.5"/>
      </g>
     </g>
     <g id="text_9">
      <!-- 0.2 -->
      <g style="fill: #262626" transform="translate(89.139766 581.419841) scale(0.2475 -0.2475)">
       <defs>
        <path id="DejaVuSans-2e" d="M 684 794 
L 1344 794 
L 1344 0 
L 684 0 
L 684 794 
z
" transform="scale(0.015625)"/>
       </defs>
       <use xlink:href="#DejaVuSans-30"/>
       <use xlink:href="#DejaVuSans-2e" x="63.623047"/>
       <use xlink:href="#DejaVuSans-32" x="95.410156"/>
      </g>
     </g>
    </g>
    <g id="ytick_2">
     <g id="line2d_9">
      <g>
       <use xlink:href="#m46028ff2d0" x="144" y="513.069677" style="fill: #262626; stroke: #262626; stroke-width: 2.5"/>
      </g>
     </g>
     <g id="text_10">
      <!-- 0.3 -->
      <g style="fill: #262626" transform="translate(89.139766 522.472744) scale(0.2475 -0.2475)">
       <defs>
        <path id="DejaVuSans-33" d="M 2597 2516 
Q 3050 2419 3304 2112 
Q 3559 1806 3559 1356 
Q 3559 666 3084 287 
Q 2609 -91 1734 -91 
Q 1441 -91 1130 -33 
Q 819 25 488 141 
L 488 750 
Q 750 597 1062 519 
Q 1375 441 1716 441 
Q 2309 441 2620 675 
Q 2931 909 2931 1356 
Q 2931 1769 2642 2001 
Q 2353 2234 1838 2234 
L 1294 2234 
L 1294 2753 
L 1863 2753 
Q 2328 2753 2575 2939 
Q 2822 3125 2822 3475 
Q 2822 3834 2567 4026 
Q 2313 4219 1838 4219 
Q 1578 4219 1281 4162 
Q 984 4106 628 3988 
L 628 4550 
Q 988 4650 1302 4700 
Q 1616 4750 1894 4750 
Q 2613 4750 3031 4423 
Q 3450 4097 3450 3541 
Q 3450 3153 3228 2886 
Q 3006 2619 2597 2516 
z
" transform="scale(0.015625)"/>
       </defs>
       <use xlink:href="#DejaVuSans-30"/>
       <use xlink:href="#DejaVuSans-2e" x="63.623047"/>
       <use xlink:href="#DejaVuSans-33" x="95.410156"/>
      </g>
     </g>
    </g>
    <g id="ytick_3">
     <g id="line2d_10">
      <g>
       <use xlink:href="#m46028ff2d0" x="144" y="454.122581" style="fill: #262626; stroke: #262626; stroke-width: 2.5"/>
      </g>
     </g>
     <g id="text_11">
      <!-- 0.4 -->
      <g style="fill: #262626" transform="translate(89.139766 463.525647) scale(0.2475 -0.2475)">
       <use xlink:href="#DejaVuSans-30"/>
       <use xlink:href="#DejaVuSans-2e" x="63.623047"/>
       <use xlink:href="#DejaVuSans-34" x="95.410156"/>
      </g>
     </g>
    </g>
    <g id="ytick_4">
     <g id="line2d_11">
      <g>
       <use xlink:href="#m46028ff2d0" x="144" y="395.175484" style="fill: #262626; stroke: #262626; stroke-width: 2.5"/>
      </g>
     </g>
     <g id="text_12">
      <!-- 0.5 -->
      <g style="fill: #262626" transform="translate(89.139766 404.57855) scale(0.2475 -0.2475)">
       <defs>
        <path id="DejaVuSans-35" d="M 691 4666 
L 3169 4666 
L 3169 4134 
L 1269 4134 
L 1269 2991 
Q 1406 3038 1543 3061 
Q 1681 3084 1819 3084 
Q 2600 3084 3056 2656 
Q 3513 2228 3513 1497 
Q 3513 744 3044 326 
Q 2575 -91 1722 -91 
Q 1428 -91 1123 -41 
Q 819 9 494 109 
L 494 744 
Q 775 591 1075 516 
Q 1375 441 1709 441 
Q 2250 441 2565 725 
Q 2881 1009 2881 1497 
Q 2881 1984 2565 2268 
Q 2250 2553 1709 2553 
Q 1456 2553 1204 2497 
Q 953 2441 691 2322 
L 691 4666 
z
" transform="scale(0.015625)"/>
       </defs>
       <use xlink:href="#DejaVuSans-30"/>
       <use xlink:href="#DejaVuSans-2e" x="63.623047"/>
       <use xlink:href="#DejaVuSans-35" x="95.410156"/>
      </g>
     </g>
    </g>
    <g id="ytick_5">
     <g id="line2d_12">
      <g>
       <use xlink:href="#m46028ff2d0" x="144" y="336.228387" style="fill: #262626; stroke: #262626; stroke-width: 2.5"/>
      </g>
     </g>
     <g id="text_13">
      <!-- 0.6 -->
      <g style="fill: #262626" transform="translate(89.139766 345.631454) scale(0.2475 -0.2475)">
       <use xlink:href="#DejaVuSans-30"/>
       <use xlink:href="#DejaVuSans-2e" x="63.623047"/>
       <use xlink:href="#DejaVuSans-36" x="95.410156"/>
      </g>
     </g>
    </g>
    <g id="ytick_6">
     <g id="line2d_13">
      <g>
       <use xlink:href="#m46028ff2d0" x="144" y="277.28129" style="fill: #262626; stroke: #262626; stroke-width: 2.5"/>
      </g>
     </g>
     <g id="text_14">
      <!-- 0.7 -->
      <g style="fill: #262626" transform="translate(89.139766 286.684357) scale(0.2475 -0.2475)">
       <defs>
        <path id="DejaVuSans-37" d="M 525 4666 
L 3525 4666 
L 3525 4397 
L 1831 0 
L 1172 0 
L 2766 4134 
L 525 4134 
L 525 4666 
z
" transform="scale(0.015625)"/>
       </defs>
       <use xlink:href="#DejaVuSans-30"/>
       <use xlink:href="#DejaVuSans-2e" x="63.623047"/>
       <use xlink:href="#DejaVuSans-37" x="95.410156"/>
      </g>
     </g>
    </g>
    <g id="ytick_7">
     <g id="line2d_14">
      <g>
       <use xlink:href="#m46028ff2d0" x="144" y="218.334194" style="fill: #262626; stroke: #262626; stroke-width: 2.5"/>
      </g>
     </g>
     <g id="text_15">
      <!-- 0.8 -->
      <g style="fill: #262626" transform="translate(89.139766 227.73726) scale(0.2475 -0.2475)">
       <use xlink:href="#DejaVuSans-30"/>
       <use xlink:href="#DejaVuSans-2e" x="63.623047"/>
       <use xlink:href="#DejaVuSans-38" x="95.410156"/>
      </g>
     </g>
    </g>
    <g id="ytick_8">
     <g id="line2d_15">
      <g>
       <use xlink:href="#m46028ff2d0" x="144" y="159.387097" style="fill: #262626; stroke: #262626; stroke-width: 2.5"/>
      </g>
     </g>
     <g id="text_16">
      <!-- 0.9 -->
      <g style="fill: #262626" transform="translate(89.139766 168.790163) scale(0.2475 -0.2475)">
       <defs>
        <path id="DejaVuSans-39" d="M 703 97 
L 703 672 
Q 941 559 1184 500 
Q 1428 441 1663 441 
Q 2288 441 2617 861 
Q 2947 1281 2994 2138 
Q 2813 1869 2534 1725 
Q 2256 1581 1919 1581 
Q 1219 1581 811 2004 
Q 403 2428 403 3163 
Q 403 3881 828 4315 
Q 1253 4750 1959 4750 
Q 2769 4750 3195 4129 
Q 3622 3509 3622 2328 
Q 3622 1225 3098 567 
Q 2575 -91 1691 -91 
Q 1453 -91 1209 -44 
Q 966 3 703 97 
z
M 1959 2075 
Q 2384 2075 2632 2365 
Q 2881 2656 2881 3163 
Q 2881 3666 2632 3958 
Q 2384 4250 1959 4250 
Q 1534 4250 1286 3958 
Q 1038 3666 1038 3163 
Q 1038 2656 1286 2365 
Q 1534 2075 1959 2075 
z
" transform="scale(0.015625)"/>
       </defs>
       <use xlink:href="#DejaVuSans-30"/>
       <use xlink:href="#DejaVuSans-2e" x="63.623047"/>
       <use xlink:href="#DejaVuSans-39" x="95.410156"/>
      </g>
     </g>
    </g>
    <g id="ytick_9">
     <g id="line2d_16">
      <g>
       <use xlink:href="#m46028ff2d0" x="144" y="100.44" style="fill: #262626; stroke: #262626; stroke-width: 2.5"/>
      </g>
     </g>
     <g id="text_17">
      <!-- 1.0 -->
      <g style="fill: #262626" transform="translate(89.139766 109.843066) scale(0.2475 -0.2475)">
       <use xlink:href="#DejaVuSans-31"/>
       <use xlink:href="#DejaVuSans-2e" x="63.623047"/>
       <use xlink:href="#DejaVuSans-30" x="95.410156"/>
      </g>
     </g>
    </g>
    <g id="text_18">
     <!-- Jaccard Distance from Ground Truth -->
     <g style="fill: #262626" transform="translate(79.524609 567.953438) rotate(-90) scale(0.27 -0.27)">
      <defs>
       <path id="DejaVuSans-4a" d="M 628 4666 
L 1259 4666 
L 1259 325 
Q 1259 -519 939 -900 
Q 619 -1281 -91 -1281 
L -331 -1281 
L -331 -750 
L -134 -750 
Q 284 -750 456 -515 
Q 628 -281 628 325 
L 628 4666 
z
" transform="scale(0.015625)"/>
       <path id="DejaVuSans-63" d="M 3122 3366 
L 3122 2828 
Q 2878 2963 2633 3030 
Q 2388 3097 2138 3097 
Q 1578 3097 1268 2742 
Q 959 2388 959 1747 
Q 959 1106 1268 751 
Q 1578 397 2138 397 
Q 2388 397 2633 464 
Q 2878 531 3122 666 
L 3122 134 
Q 2881 22 2623 -34 
Q 2366 -91 2075 -91 
Q 1284 -91 818 406 
Q 353 903 353 1747 
Q 353 2603 823 3093 
Q 1294 3584 2113 3584 
Q 2378 3584 2631 3529 
Q 2884 3475 3122 3366 
z
" transform="scale(0.015625)"/>
       <path id="DejaVuSans-64" d="M 2906 2969 
L 2906 4863 
L 3481 4863 
L 3481 0 
L 2906 0 
L 2906 525 
Q 2725 213 2448 61 
Q 2172 -91 1784 -91 
Q 1150 -91 751 415 
Q 353 922 353 1747 
Q 353 2572 751 3078 
Q 1150 3584 1784 3584 
Q 2172 3584 2448 3432 
Q 2725 3281 2906 2969 
z
M 947 1747 
Q 947 1113 1208 752 
Q 1469 391 1925 391 
Q 2381 391 2643 752 
Q 2906 1113 2906 1747 
Q 2906 2381 2643 2742 
Q 2381 3103 1925 3103 
Q 1469 3103 1208 2742 
Q 947 2381 947 1747 
z
" transform="scale(0.015625)"/>
       <path id="DejaVuSans-20" transform="scale(0.015625)"/>
       <path id="DejaVuSans-44" d="M 1259 4147 
L 1259 519 
L 2022 519 
Q 2988 519 3436 956 
Q 3884 1394 3884 2338 
Q 3884 3275 3436 3711 
Q 2988 4147 2022 4147 
L 1259 4147 
z
M 628 4666 
L 1925 4666 
Q 3281 4666 3915 4102 
Q 4550 3538 4550 2338 
Q 4550 1131 3912 565 
Q 3275 0 1925 0 
L 628 0 
L 628 4666 
z
" transform="scale(0.015625)"/>
       <path id="DejaVuSans-66" d="M 2375 4863 
L 2375 4384 
L 1825 4384 
Q 1516 4384 1395 4259 
Q 1275 4134 1275 3809 
L 1275 3500 
L 2222 3500 
L 2222 3053 
L 1275 3053 
L 1275 0 
L 697 0 
L 697 3053 
L 147 3053 
L 147 3500 
L 697 3500 
L 697 3744 
Q 697 4328 969 4595 
Q 1241 4863 1831 4863 
L 2375 4863 
z
" transform="scale(0.015625)"/>
       <path id="DejaVuSans-6d" d="M 3328 2828 
Q 3544 3216 3844 3400 
Q 4144 3584 4550 3584 
Q 5097 3584 5394 3201 
Q 5691 2819 5691 2113 
L 5691 0 
L 5113 0 
L 5113 2094 
Q 5113 2597 4934 2840 
Q 4756 3084 4391 3084 
Q 3944 3084 3684 2787 
Q 3425 2491 3425 1978 
L 3425 0 
L 2847 0 
L 2847 2094 
Q 2847 2600 2669 2842 
Q 2491 3084 2119 3084 
Q 1678 3084 1418 2786 
Q 1159 2488 1159 1978 
L 1159 0 
L 581 0 
L 581 3500 
L 1159 3500 
L 1159 2956 
Q 1356 3278 1631 3431 
Q 1906 3584 2284 3584 
Q 2666 3584 2933 3390 
Q 3200 3197 3328 2828 
z
" transform="scale(0.015625)"/>
       <path id="DejaVuSans-47" d="M 3809 666 
L 3809 1919 
L 2778 1919 
L 2778 2438 
L 4434 2438 
L 4434 434 
Q 4069 175 3628 42 
Q 3188 -91 2688 -91 
Q 1594 -91 976 548 
Q 359 1188 359 2328 
Q 359 3472 976 4111 
Q 1594 4750 2688 4750 
Q 3144 4750 3555 4637 
Q 3966 4525 4313 4306 
L 4313 3634 
Q 3963 3931 3569 4081 
Q 3175 4231 2741 4231 
Q 1884 4231 1454 3753 
Q 1025 3275 1025 2328 
Q 1025 1384 1454 906 
Q 1884 428 2741 428 
Q 3075 428 3337 486 
Q 3600 544 3809 666 
z
" transform="scale(0.015625)"/>
       <path id="DejaVuSans-75" d="M 544 1381 
L 544 3500 
L 1119 3500 
L 1119 1403 
Q 1119 906 1312 657 
Q 1506 409 1894 409 
Q 2359 409 2629 706 
Q 2900 1003 2900 1516 
L 2900 3500 
L 3475 3500 
L 3475 0 
L 2900 0 
L 2900 538 
Q 2691 219 2414 64 
Q 2138 -91 1772 -91 
Q 1169 -91 856 284 
Q 544 659 544 1381 
z
M 1991 3584 
L 1991 3584 
z
" transform="scale(0.015625)"/>
       <path id="DejaVuSans-54" d="M -19 4666 
L 3928 4666 
L 3928 4134 
L 2272 4134 
L 2272 0 
L 1638 0 
L 1638 4134 
L -19 4134 
L -19 4666 
z
" transform="scale(0.015625)"/>
       <path id="DejaVuSans-68" d="M 3513 2113 
L 3513 0 
L 2938 0 
L 2938 2094 
Q 2938 2591 2744 2837 
Q 2550 3084 2163 3084 
Q 1697 3084 1428 2787 
Q 1159 2491 1159 1978 
L 1159 0 
L 581 0 
L 581 4863 
L 1159 4863 
L 1159 2956 
Q 1366 3272 1645 3428 
Q 1925 3584 2291 3584 
Q 2894 3584 3203 3211 
Q 3513 2838 3513 2113 
z
" transform="scale(0.015625)"/>
      </defs>
      <use xlink:href="#DejaVuSans-4a"/>
      <use xlink:href="#DejaVuSans-61" x="29.492188"/>
      <use xlink:href="#DejaVuSans-63" x="90.771484"/>
      <use xlink:href="#DejaVuSans-63" x="145.751953"/>
      <use xlink:href="#DejaVuSans-61" x="200.732422"/>
      <use xlink:href="#DejaVuSans-72" x="262.011719"/>
      <use xlink:href="#DejaVuSans-64" x="301.375"/>
      <use xlink:href="#DejaVuSans-20" x="364.851562"/>
      <use xlink:href="#DejaVuSans-44" x="396.638672"/>
      <use xlink:href="#DejaVuSans-69" x="473.640625"/>
      <use xlink:href="#DejaVuSans-73" x="501.423828"/>
      <use xlink:href="#DejaVuSans-74" x="553.523438"/>
      <use xlink:href="#DejaVuSans-61" x="592.732422"/>
      <use xlink:href="#DejaVuSans-6e" x="654.011719"/>
      <use xlink:href="#DejaVuSans-63" x="717.390625"/>
      <use xlink:href="#DejaVuSans-65" x="772.371094"/>
      <use xlink:href="#DejaVuSans-20" x="833.894531"/>
      <use xlink:href="#DejaVuSans-66" x="865.681641"/>
      <use xlink:href="#DejaVuSans-72" x="900.886719"/>
      <use xlink:href="#DejaVuSans-6f" x="939.75"/>
      <use xlink:href="#DejaVuSans-6d" x="1000.931641"/>
      <use xlink:href="#DejaVuSans-20" x="1098.34375"/>
      <use xlink:href="#DejaVuSans-47" x="1130.130859"/>
      <use xlink:href="#DejaVuSans-72" x="1207.621094"/>
      <use xlink:href="#DejaVuSans-6f" x="1246.484375"/>
      <use xlink:href="#DejaVuSans-75" x="1307.666016"/>
      <use xlink:href="#DejaVuSans-6e" x="1371.044922"/>
      <use xlink:href="#DejaVuSans-64" x="1434.423828"/>
      <use xlink:href="#DejaVuSans-20" x="1497.900391"/>
      <use xlink:href="#DejaVuSans-54" x="1529.6875"/>
      <use xlink:href="#DejaVuSans-72" x="1576.021484"/>
      <use xlink:href="#DejaVuSans-75" x="1617.134766"/>
      <use xlink:href="#DejaVuSans-74" x="1680.513672"/>
      <use xlink:href="#DejaVuSans-68" x="1719.722656"/>
     </g>
    </g>
   </g>
   <g id="line2d_17">
    <path d="M 184.581818 100.44 
L 191.639526 105.503672 
L 198.697233 134.820597 
L 205.754941 181.005508 
L 212.812648 218.050794 
L 219.870356 281.993968 
L 226.928063 358.652067 
L 233.985771 384.453852 
L 241.043478 407.072651 
L 248.101186 415.338019 
L 255.158893 432.334774 
L 262.216601 430.175323 
L 269.274308 433.056847 
L 276.332016 475.382189 
L 283.389723 496.382811 
L 290.447431 508.074161 
L 297.505138 553.116111 
L 304.562846 523.519851 
L 311.620553 542.155756 
L 318.678261 554.04 
L 325.735968 523.519851 
L 332.793676 549.436862 
L 339.851383 526.140777 
L 346.909091 553.116111 
L 353.966798 546.69443 
L 361.024506 543.966444 
" clip-path="url(#p7a6026d64f)" style="fill: none; stroke: #4878d0; stroke-width: 3; stroke-linecap: round"/>
   </g>
   <g id="line2d_18">
    <path d="M 184.581818 100.587552 
L 191.639526 103.852492 
L 198.697233 119.632078 
L 205.754941 151.579853 
L 212.812648 174.871509 
L 219.870356 190.774512 
L 226.928063 194.919667 
L 233.985771 221.320657 
L 241.043478 234.188555 
L 248.101186 239.557336 
L 255.158893 256.860732 
L 262.216601 288.113865 
L 269.274308 295.35997 
L 276.332016 296.930323 
L 283.389723 305.680904 
L 290.447431 330.852773 
L 297.505138 350.728742 
L 304.562846 393.849837 
L 311.620553 394.512163 
L 318.678261 398.507083 
L 325.735968 417.638003 
L 332.793676 427.159615 
L 339.851383 438.706719 
L 346.909091 436.519518 
L 353.966798 449.051863 
L 361.024506 479.922544 
L 368.082213 464.237339 
L 375.139921 475.95305 
L 382.197628 477.933723 
L 389.255336 480.32129 
L 396.313043 496.544759 
L 403.370751 496.132557 
L 410.428458 496.544759 
L 417.486166 501.93495 
L 424.543874 504.023833 
L 431.601581 501.93495 
L 438.659289 494.076706 
L 445.716996 502.769448 
L 452.774704 492.847309 
L 459.832411 499.025235 
L 466.890119 502.769448 
" clip-path="url(#p7a6026d64f)" style="fill: none; stroke: #ee854a; stroke-width: 3; stroke-linecap: round"/>
   </g>
   <g id="line2d_19">
    <path d="M 184.581818 100.44 
L 191.639526 102.01718 
L 198.697233 110.539503 
L 205.754941 119.7303 
L 212.812648 130.942357 
L 219.870356 136.981771 
L 226.928063 144.159273 
L 233.985771 157.478621 
L 241.043478 181.773345 
L 248.101186 190.28249 
L 255.158893 219.421212 
L 262.216601 238.375479 
L 269.274308 254.44146 
L 276.332016 263.143521 
L 283.389723 265.71341 
L 290.447431 297.105136 
L 297.505138 308.817322 
L 304.562846 337.35854 
L 311.620553 347.529487 
L 318.678261 359.580778 
L 325.735968 362.853323 
L 332.793676 376.411717 
L 339.851383 384.97198 
L 346.909091 396.578635 
L 353.966798 401.03902 
L 361.024506 416.546261 
L 368.082213 408.953769 
L 375.139921 417.475296 
L 382.197628 412.159222 
L 389.255336 411.241045 
L 396.313043 411.011793 
L 403.370751 408.497707 
L 410.428458 414.001205 
L 417.486166 414.462877 
" clip-path="url(#p7a6026d64f)" style="fill: none; stroke: #6acc64; stroke-width: 3; stroke-linecap: round"/>
   </g>
   <g id="line2d_20">
    <path d="M 184.581818 100.51373 
L 191.639526 102.288799 
L 198.697233 113.861058 
L 205.754941 125.895302 
L 212.812648 132.790913 
L 219.870356 137.835618 
L 226.928063 149.296478 
L 233.985771 160.467428 
L 241.043478 172.685986 
L 248.101186 182.108126 
L 255.158893 193.577267 
L 262.216601 222.641969 
L 269.274308 239.133694 
L 276.332016 254.995845 
L 283.389723 284.546885 
L 290.447431 299.692235 
L 297.505138 308.500311 
L 304.562846 311.072556 
L 311.620553 314.482476 
L 318.678261 322.646294 
L 325.735968 324.046462 
L 332.793676 329.411446 
L 339.851383 342.258249 
L 346.909091 349.355702 
L 353.966798 359.773257 
L 361.024506 362.533596 
L 368.082213 370.609714 
L 375.139921 375.49762 
L 382.197628 377.086242 
L 389.255336 378.521003 
L 396.313043 382.531506 
L 403.370751 383.49955 
L 410.428458 392.144926 
L 417.486166 392.96938 
L 424.543874 406.03357 
L 431.601581 406.373641 
L 438.659289 406.373641 
L 445.716996 403.15337 
L 452.774704 411.677967 
L 459.832411 410.131539 
L 466.890119 424.066641 
L 473.947826 436.800865 
L 481.005534 426.371996 
L 488.063241 436.255616 
L 495.120949 425.483945 
L 502.178656 432.276667 
L 509.236364 445.057391 
L 516.294071 441.553407 
L 523.351779 446.726399 
L 530.409486 442.104919 
L 537.467194 458.00738 
L 544.524901 463.173044 
L 551.582609 467.61808 
L 558.640316 458.00738 
L 565.698024 462.5963 
L 572.755731 468.395369 
L 579.813439 462.404207 
L 586.871146 463.557928 
L 593.928854 470.148898 
L 600.986561 469.75867 
L 608.044269 474.462462 
L 615.101976 480.806452 
L 622.159684 481.205726 
L 629.217391 482.205352 
L 636.275099 473.871965 
L 643.332806 464.907478 
L 650.390514 478.219157 
L 657.448221 487.841542 
L 664.505929 471.908861 
L 671.563636 477.624048 
L 678.621344 479.212635 
L 685.679051 482.806116 
L 692.736759 481.405486 
L 699.794466 482.806116 
" clip-path="url(#p7a6026d64f)" style="fill: none; stroke: #d65f5f; stroke-width: 3; stroke-linecap: round"/>
   </g>
   <g id="line2d_21">
    <path d="M 184.581818 100.44 
L 191.639526 101.266748 
L 198.697233 106.216208 
L 205.754941 110.211562 
L 212.812648 116.05753 
L 219.870356 122.462577 
L 226.928063 128.227758 
L 233.985771 135.622037 
L 241.043478 141.706754 
L 248.101186 149.222043 
L 255.158893 158.195723 
L 262.216601 168.010936 
L 269.274308 173.328721 
L 276.332016 178.052899 
L 283.389723 190.280975 
L 290.447431 196.923839 
L 297.505138 204.18689 
L 304.562846 215.458725 
L 311.620553 228.848149 
L 318.678261 241.576818 
L 325.735968 248.804218 
L 332.793676 257.876345 
L 339.851383 260.060285 
L 346.909091 265.238335 
L 353.966798 283.027705 
L 361.024506 283.128879 
L 368.082213 297.349894 
L 375.139921 303.804311 
L 382.197628 312.649548 
L 389.255336 318.915254 
L 396.313043 331.630842 
L 403.370751 333.119415 
L 410.428458 339.94368 
L 417.486166 352.132743 
L 424.543874 366.793548 
L 431.601581 373.432702 
L 438.659289 370.915295 
L 445.716996 372.928042 
L 452.774704 376.473115 
L 459.832411 376.600264 
L 466.890119 376.981935 
L 473.947826 373.306482 
L 481.005534 369.662095 
L 488.063241 373.180299 
L 495.120949 379.407027 
L 502.178656 381.074141 
L 509.236364 399.174006 
L 516.294071 404.561964 
L 523.351779 413.458203 
L 530.409486 424.653603 
L 537.467194 429.496202 
L 544.524901 437.002632 
L 551.582609 448.346028 
L 558.640316 447.898877 
L 565.698024 451.488074 
L 572.755731 443.598313 
L 579.813439 452.841122 
L 586.871146 450.138907 
L 593.928854 455.861879 
L 600.986561 461.655027 
L 608.044269 457.227551 
L 615.101976 458.749601 
L 622.159684 463.037508 
L 629.217391 457.835784 
L 636.275099 457.227551 
L 643.332806 456.165021 
L 650.390514 467.519648 
L 657.448221 454.953619 
L 664.505929 463.345272 
L 671.563636 458.597175 
L 678.621344 467.519648 
L 685.679051 469.698579 
L 692.736759 462.576234 
L 699.794466 458.292472 
L 706.852174 463.499228 
L 713.909881 458.902075 
L 720.967589 465.659861 
L 728.025296 468.763537 
" clip-path="url(#p7a6026d64f)" style="fill: none; stroke: #956cb4; stroke-width: 3; stroke-linecap: round"/>
   </g>
   <g id="line2d_22">
    <path d="M 184.581818 100.44 
L 191.639526 101.523043 
L 198.697233 106.747424 
L 205.754941 111.809692 
L 212.812648 115.198181 
L 219.870356 119.043134 
L 226.928063 126.024588 
L 233.985771 132.075201 
L 241.043478 136.913418 
L 248.101186 144.995189 
L 255.158893 150.963034 
L 262.216601 165.657832 
L 269.274308 180.662538 
L 276.332016 188.750469 
L 283.389723 198.303182 
L 290.447431 209.644433 
L 297.505138 215.211013 
L 304.562846 229.961786 
L 311.620553 234.005201 
L 318.678261 237.944845 
L 325.735968 251.108631 
L 332.793676 264.356389 
L 339.851383 288.034277 
L 346.909091 292.932289 
L 353.966798 307.285894 
L 361.024506 318.102205 
L 368.082213 327.327117 
L 375.139921 332.162126 
L 382.197628 329.216397 
L 389.255336 330.639106 
L 396.313043 336.187112 
L 403.370751 343.277616 
L 410.428458 347.709504 
L 417.486166 353.692632 
L 424.543874 354.496854 
L 431.601581 361.395217 
L 438.659289 359.049355 
L 445.716996 359.863838 
L 452.774704 362.829498 
L 459.832411 372.166661 
L 466.890119 376.594412 
L 473.947826 382.139875 
L 481.005534 387.539471 
L 488.063241 395.54418 
L 495.120949 402.908201 
L 502.178656 393.99772 
L 509.236364 404.71192 
L 516.294071 409.709974 
L 523.351779 420.343226 
L 530.409486 415.805082 
L 537.467194 412.000343 
L 544.524901 410.739198 
L 551.582609 413.61056 
L 558.640316 422.218224 
L 565.698024 415.110923 
L 572.755731 425.63644 
L 579.813439 420.811252 
L 586.871146 417.080479 
L 593.928854 420.6942 
L 600.986561 426.346861 
L 608.044269 425.281643 
L 615.101976 427.058387 
L 622.159684 434.838085 
L 629.217391 425.873125 
L 636.275099 433.87346 
L 643.332806 429.318867 
L 650.390514 435.442 
L 657.448221 432.190206 
L 664.505929 441.647333 
L 671.563636 442.873846 
L 678.621344 445.336597 
L 685.679051 449.055226 
L 692.736759 451.425706 
L 699.794466 456.961504 
L 706.852174 455.823886 
L 713.909881 454.563071 
L 720.967589 449.428718 
L 728.025296 453.933925 
L 735.083004 454.689001 
L 742.140711 455.319156 
" clip-path="url(#p7a6026d64f)" style="fill: none; stroke: #8c613c; stroke-width: 3; stroke-linecap: round"/>
   </g>
   <g id="line2d_23">
    <path d="M 184.581818 100.44 
L 191.639526 101.156861 
L 198.697233 104.810223 
L 205.754941 108.422553 
L 212.812648 111.597721 
L 219.870356 113.571886 
L 226.928063 119.124396 
L 233.985771 125.145736 
L 241.043478 130.914604 
L 248.101186 135.797544 
L 255.158893 147.021431 
L 262.216601 150.175328 
L 269.274308 160.798558 
L 276.332016 164.194342 
L 283.389723 168.148869 
L 290.447431 177.062659 
L 297.505138 182.976499 
L 304.562846 195.124905 
L 311.620553 205.082751 
L 318.678261 220.788843 
L 325.735968 226.452136 
L 332.793676 235.245712 
L 339.851383 243.672022 
L 346.909091 248.321402 
L 353.966798 259.901101 
L 361.024506 268.56643 
L 368.082213 269.960354 
L 375.139921 271.28934 
L 382.197628 279.791664 
L 389.255336 284.331955 
L 396.313043 294.616037 
L 403.370751 297.679785 
L 410.428458 301.751709 
L 417.486166 306.019207 
L 424.543874 311.030675 
L 431.601581 312.507521 
L 438.659289 330.908971 
L 445.716996 343.401245 
L 452.774704 343.065418 
L 459.832411 350.004491 
L 466.890119 350.773151 
L 473.947826 356.193463 
L 481.005534 363.61844 
L 488.063241 363.530329 
L 495.120949 363.090047 
L 502.178656 367.335616 
L 509.236364 369.474304 
L 516.294071 370.010647 
L 523.351779 370.726813 
L 530.409486 375.501744 
L 537.467194 376.681064 
L 544.524901 374.958525 
L 551.582609 375.954948 
L 558.640316 375.41116 
L 565.698024 380.055271 
L 572.755731 380.23841 
L 579.813439 382.16604 
L 586.871146 388.373655 
L 593.928854 382.35007 
L 600.986561 392.027946 
L 608.044269 394.386493 
L 615.101976 400.003048 
L 622.159684 402.982835 
L 629.217391 397.233471 
L 636.275099 401.634655 
L 643.332806 409.1005 
L 650.390514 403.465318 
L 657.448221 405.982665 
L 664.505929 405.10967 
L 671.563636 406.468399 
L 678.621344 407.636315 
L 685.679051 410.863847 
L 692.736759 412.338601 
L 699.794466 413.127115 
L 706.852174 407.538872 
L 713.909881 406.760092 
L 720.967589 416.394369 
L 728.025296 413.324459 
L 735.083004 422.89958 
L 742.140711 429.090072 
L 749.198419 428.069484 
L 756.256126 433.092165 
L 763.313834 427.356421 
L 770.371542 423.807676 
L 777.429249 430.727746 
L 784.486957 429.601218 
L 791.544664 429.805836 
L 798.602372 435.468771 
L 805.660079 422.295185 
L 812.717787 422.093899 
L 819.775494 426.136605 
L 826.833202 426.644467 
L 833.890909 435.779666 
L 840.948617 433.917423 
L 848.006324 429.498944 
L 855.064032 437.233281 
L 862.121739 439.317819 
L 869.179447 437.545365 
L 876.237154 431.035461 
L 883.294862 443.409772 
L 890.352569 435.365185 
L 897.410277 445.734007 
L 904.467984 440.573051 
L 911.525692 448.389287 
L 918.583399 444.25361 
L 925.641107 443.936992 
L 932.698814 445.734007 
L 939.756522 441.201941 
L 946.814229 444.676102 
L 953.871937 453.422272 
L 960.929644 446.688173 
L 967.987352 447.750645 
L 975.045059 444.676102 
L 982.102767 441.516705 
L 989.160474 444.887491 
L 996.218182 440.887389 
" clip-path="url(#p7a6026d64f)" style="fill: none; stroke: #dc7ec0; stroke-width: 3; stroke-linecap: round"/>
   </g>
   <g id="line2d_24">
    <path d="M 184.581818 100.44 
L 191.639526 100.845642 
L 198.697233 104.559061 
L 205.754941 109.456979 
L 212.812648 113.35692 
L 219.870356 115.752407 
L 226.928063 118.284349 
L 233.985771 120.640415 
L 241.043478 125.568015 
L 248.101186 128.870579 
L 255.158893 136.91019 
L 262.216601 142.739726 
L 269.274308 149.54262 
L 276.332016 156.714656 
L 283.389723 162.425271 
L 290.447431 172.016256 
L 297.505138 181.369146 
L 304.562846 186.847292 
L 311.620553 198.527556 
L 318.678261 210.099869 
L 325.735968 217.750953 
L 332.793676 228.453251 
L 339.851383 232.460929 
L 346.909091 234.842639 
L 353.966798 243.787685 
L 361.024506 249.585482 
L 368.082213 249.180697 
L 375.139921 253.599386 
L 382.197628 260.983159 
L 389.255336 263.857694 
L 396.313043 270.100954 
L 403.370751 276.57293 
L 410.428458 288.953983 
L 417.486166 308.092847 
L 424.543874 316.124664 
L 431.601581 323.129032 
L 438.659289 328.409656 
L 445.716996 337.147741 
L 452.774704 341.587214 
L 459.832411 340.19932 
L 466.890119 344.303332 
L 473.947826 358.459379 
L 481.005534 363.208512 
L 488.063241 364.674564 
L 495.120949 369.259365 
L 502.178656 372.238451 
L 509.236364 379.297387 
L 516.294071 382.427221 
L 523.351779 382.668912 
L 530.409486 377.780726 
L 537.467194 378.099582 
L 544.524901 380.979883 
L 551.582609 385.012191 
L 558.640316 389.818655 
L 565.698024 385.985513 
L 572.755731 393.024935 
L 579.813439 395.424299 
L 586.871146 400.933884 
L 593.928854 398.003614 
L 600.986561 397.503218 
L 608.044269 399.340768 
L 615.101976 400.178538 
L 622.159684 403.545481 
L 629.217391 409.328179 
L 636.275099 403.038815 
L 643.332806 407.449124 
L 650.390514 401.270005 
L 657.448221 400.346282 
L 664.505929 406.597604 
L 671.563636 414.06046 
L 678.621344 412.937427 
L 685.679051 413.282678 
L 692.736759 409.927713 
L 699.794466 411.387061 
L 706.852174 404.984165 
L 713.909881 410.442236 
" clip-path="url(#p7a6026d64f)" style="fill: none; stroke: #797979; stroke-width: 3; stroke-linecap: round"/>
   </g>
   <g id="line2d_25">
    <path d="M 184.581818 100.472757 
L 191.639526 100.997373 
L 198.697233 104.629536 
L 205.754941 108.744279 
L 212.812648 110.907927 
L 219.870356 113.05312 
L 226.928063 115.076067 
L 233.985771 118.536016 
L 241.043478 123.694703 
L 248.101186 129.157816 
L 255.158893 134.976064 
L 262.216601 140.79267 
L 269.274308 146.871174 
L 276.332016 157.293259 
L 283.389723 165.669985 
L 290.447431 177.224499 
L 297.505138 183.049591 
L 304.562846 191.805919 
L 311.620553 197.445415 
L 318.678261 204.672899 
L 325.735968 207.085545 
L 332.793676 210.482355 
L 339.851383 210.02139 
L 346.909091 214.052246 
L 353.966798 217.4705 
L 361.024506 223.162355 
L 368.082213 232.070217 
L 375.139921 238.29982 
L 382.197628 241.103215 
L 389.255336 243.321089 
L 396.313043 247.951076 
L 403.370751 249.747466 
L 410.428458 256.497146 
L 417.486166 259.126133 
L 424.543874 261.720592 
L 431.601581 266.85613 
L 438.659289 273.484813 
L 445.716996 274.198008 
L 452.774704 276.732371 
L 459.832411 283.761306 
L 466.890119 283.873916 
L 473.947826 287.66544 
L 481.005534 290.290185 
L 488.063241 293.798309 
L 495.120949 296.290289 
L 502.178656 303.210969 
L 509.236364 306.001599 
L 516.294071 312.065508 
L 523.351779 310.73679 
L 530.409486 314.00609 
L 537.467194 317.363524 
L 544.524901 328.046713 
L 551.582609 337.532811 
L 558.640316 334.069555 
L 565.698024 339.922657 
L 572.755731 341.675339 
L 579.813439 342.782687 
L 586.871146 348.297909 
L 593.928854 356.574416 
L 600.986561 359.550709 
L 608.044269 361.387465 
L 615.101976 362.821561 
L 622.159684 372.437242 
L 629.217391 369.092276 
L 636.275099 375.31512 
L 643.332806 380.202033 
L 650.390514 379.632604 
L 657.448221 380.986217 
L 664.505929 380.202033 
L 671.563636 386.22642 
L 678.621344 388.108071 
L 685.679051 386.082012 
L 692.736759 392.334896 
L 699.794466 391.457042 
L 706.852174 395.716283 
L 713.909881 401.36013 
L 720.967589 401.509625 
L 728.025296 402.407649 
L 735.083004 402.78236 
L 742.140711 401.95841 
L 749.198419 413.710887 
L 756.256126 421.302812 
L 763.313834 413.941414 
L 770.371542 415.481271 
L 777.429249 414.710686 
L 784.486957 415.404153 
L 791.544664 415.635546 
L 798.602372 415.018763 
" clip-path="url(#p7a6026d64f)" style="fill: none; stroke: #d5bb67; stroke-width: 3; stroke-linecap: round"/>
   </g>
   <g id="line2d_26">
    <path d="M 184.581818 100.44 
L 191.639526 100.853001 
L 198.697233 103.790109 
L 205.754941 107.842714 
L 212.812648 110.331458 
L 219.870356 112.227014 
L 226.928063 114.814395 
L 233.985771 116.863011 
L 241.043478 121.38133 
L 248.101186 125.678887 
L 255.158893 129.647463 
L 262.216601 133.897976 
L 269.274308 137.141019 
L 276.332016 140.586118 
L 283.389723 143.695506 
L 290.447431 146.698576 
L 297.505138 150.666279 
L 304.562846 154.297352 
L 311.620553 159.215277 
L 318.678261 165.551221 
L 325.735968 171.715793 
L 332.793676 173.94566 
L 339.851383 181.450345 
L 346.909091 188.620031 
L 353.966798 196.861466 
L 361.024506 205.960864 
L 368.082213 209.751429 
L 375.139921 218.858136 
L 382.197628 222.748107 
L 389.255336 229.254314 
L 396.313043 234.146005 
L 403.370751 240.953641 
L 410.428458 244.634006 
L 417.486166 252.433552 
L 424.543874 253.507868 
L 431.601581 254.679138 
L 438.659289 257.694498 
L 445.716996 266.743684 
L 452.774704 277.357945 
L 459.832411 279.957907 
L 466.890119 285.872817 
L 473.947826 288.172083 
L 481.005534 297.717228 
L 488.063241 303.642971 
L 495.120949 314.504479 
L 502.178656 313.902375 
L 509.236364 315.491691 
L 516.294071 324.038045 
L 523.351779 326.96498 
L 530.409486 331.395111 
L 537.467194 338.421575 
L 544.524901 347.642902 
L 551.582609 350.503325 
L 558.640316 354.468493 
L 565.698024 353.443585 
L 572.755731 361.345013 
L 579.813439 364.176522 
L 586.871146 371.275687 
L 593.928854 377.919714 
L 600.986561 389.158681 
L 608.044269 385.639667 
L 615.101976 393.894985 
L 622.159684 392.574228 
L 629.217391 395.153375 
L 636.275099 399.01706 
L 643.332806 400.22301 
L 650.390514 402.577313 
L 657.448221 398.950159 
L 664.505929 402.105456 
L 671.563636 401.634097 
L 678.621344 405.147569 
L 685.679051 405.147569 
L 692.736759 406.710462 
L 699.794466 406.982827 
L 706.852174 409.510081 
L 713.909881 406.642396 
L 720.967589 413.56965 
L 728.025296 408.757247 
L 735.083004 407.050944 
L 742.140711 409.441589 
L 749.198419 402.84717 
L 756.256126 406.982827 
L 763.313834 408.14223 
" clip-path="url(#p7a6026d64f)" style="fill: none; stroke: #82c6e2; stroke-width: 3; stroke-linecap: round"/>
   </g>
   <g id="patch_3">
    <path d="M 144 576.72 
L 144 77.76 
" style="fill: none; stroke: #262626; stroke-width: 2.5; stroke-linejoin: miter; stroke-linecap: square"/>
   </g>
   <g id="patch_4">
    <path d="M 1036.8 576.72 
L 1036.8 77.76 
" style="fill: none; stroke: #262626; stroke-width: 2.5; stroke-linejoin: miter; stroke-linecap: square"/>
   </g>
   <g id="patch_5">
    <path d="M 144 576.72 
L 1036.8 576.72 
" style="fill: none; stroke: #262626; stroke-width: 2.5; stroke-linejoin: miter; stroke-linecap: square"/>
   </g>
   <g id="patch_6">
    <path d="M 144 77.76 
L 1036.8 77.76 
" style="fill: none; stroke: #262626; stroke-width: 2.5; stroke-linejoin: miter; stroke-linecap: square"/>
   </g>
   <g id="text_19">
    <!-- Distance from Ground Truth Tree Each Iteration -->
    <g style="fill: #262626" transform="translate(272.205 71.76) scale(0.27 -0.27)">
     <defs>
      <path id="DejaVuSans-45" d="M 628 4666 
L 3578 4666 
L 3578 4134 
L 1259 4134 
L 1259 2753 
L 3481 2753 
L 3481 2222 
L 1259 2222 
L 1259 531 
L 3634 531 
L 3634 0 
L 628 0 
L 628 4666 
z
" transform="scale(0.015625)"/>
     </defs>
     <use xlink:href="#DejaVuSans-44"/>
     <use xlink:href="#DejaVuSans-69" x="77.001953"/>
     <use xlink:href="#DejaVuSans-73" x="104.785156"/>
     <use xlink:href="#DejaVuSans-74" x="156.884766"/>
     <use xlink:href="#DejaVuSans-61" x="196.09375"/>
     <use xlink:href="#DejaVuSans-6e" x="257.373047"/>
     <use xlink:href="#DejaVuSans-63" x="320.751953"/>
     <use xlink:href="#DejaVuSans-65" x="375.732422"/>
     <use xlink:href="#DejaVuSans-20" x="437.255859"/>
     <use xlink:href="#DejaVuSans-66" x="469.042969"/>
     <use xlink:href="#DejaVuSans-72" x="504.248047"/>
     <use xlink:href="#DejaVuSans-6f" x="543.111328"/>
     <use xlink:href="#DejaVuSans-6d" x="604.292969"/>
     <use xlink:href="#DejaVuSans-20" x="701.705078"/>
     <use xlink:href="#DejaVuSans-47" x="733.492188"/>
     <use xlink:href="#DejaVuSans-72" x="810.982422"/>
     <use xlink:href="#DejaVuSans-6f" x="849.845703"/>
     <use xlink:href="#DejaVuSans-75" x="911.027344"/>
     <use xlink:href="#DejaVuSans-6e" x="974.40625"/>
     <use xlink:href="#DejaVuSans-64" x="1037.785156"/>
     <use xlink:href="#DejaVuSans-20" x="1101.261719"/>
     <use xlink:href="#DejaVuSans-54" x="1133.048828"/>
     <use xlink:href="#DejaVuSans-72" x="1179.382812"/>
     <use xlink:href="#DejaVuSans-75" x="1220.496094"/>
     <use xlink:href="#DejaVuSans-74" x="1283.875"/>
     <use xlink:href="#DejaVuSans-68" x="1323.083984"/>
     <use xlink:href="#DejaVuSans-20" x="1386.462891"/>
     <use xlink:href="#DejaVuSans-54" x="1418.25"/>
     <use xlink:href="#DejaVuSans-72" x="1464.583984"/>
     <use xlink:href="#DejaVuSans-65" x="1503.447266"/>
     <use xlink:href="#DejaVuSans-65" x="1564.970703"/>
     <use xlink:href="#DejaVuSans-20" x="1626.494141"/>
     <use xlink:href="#DejaVuSans-45" x="1658.28125"/>
     <use xlink:href="#DejaVuSans-61" x="1721.464844"/>
     <use xlink:href="#DejaVuSans-63" x="1782.744141"/>
     <use xlink:href="#DejaVuSans-68" x="1837.724609"/>
     <use xlink:href="#DejaVuSans-20" x="1901.103516"/>
     <use xlink:href="#DejaVuSans-49" x="1932.890625"/>
     <use xlink:href="#DejaVuSans-74" x="1962.382812"/>
     <use xlink:href="#DejaVuSans-65" x="2001.591797"/>
     <use xlink:href="#DejaVuSans-72" x="2063.115234"/>
     <use xlink:href="#DejaVuSans-61" x="2104.228516"/>
     <use xlink:href="#DejaVuSans-74" x="2165.507812"/>
     <use xlink:href="#DejaVuSans-69" x="2204.716797"/>
     <use xlink:href="#DejaVuSans-6f" x="2232.5"/>
     <use xlink:href="#DejaVuSans-6e" x="2293.681641"/>
    </g>
   </g>
   <g id="legend_1">
    <g id="patch_7">
     <path d="M 679.750313 317.707734 
L 1019.475 317.707734 
Q 1024.425 317.707734 1024.425 312.757734 
L 1024.425 95.085 
Q 1024.425 90.135 1019.475 90.135 
L 679.750313 90.135 
Q 674.800313 90.135 674.800313 95.085 
L 674.800313 312.757734 
Q 674.800313 317.707734 679.750313 317.707734 
z
" style="fill: #ffffff; opacity: 0.8; stroke: #cccccc; stroke-width: 2; stroke-linejoin: miter"/>
    </g>
    <g id="text_20">
     <!-- Taxa -->
     <g style="fill: #262626" transform="translate(819.058359 120.550781) scale(0.27 -0.27)">
      <defs>
       <path id="DejaVuSans-78" d="M 3513 3500 
L 2247 1797 
L 3578 0 
L 2900 0 
L 1881 1375 
L 863 0 
L 184 0 
L 1544 1831 
L 300 3500 
L 978 3500 
L 1906 2253 
L 2834 3500 
L 3513 3500 
z
" transform="scale(0.015625)"/>
      </defs>
      <use xlink:href="#DejaVuSans-54"/>
      <use xlink:href="#DejaVuSans-61" x="44.583984"/>
      <use xlink:href="#DejaVuSans-78" x="105.863281"/>
      <use xlink:href="#DejaVuSans-61" x="165.042969"/>
     </g>
    </g>
    <g id="line2d_27">
     <path d="M 684.700312 148.68457 
L 709.450312 148.68457 
L 734.200312 148.68457 
" style="fill: none; stroke: #4878d0; stroke-width: 3; stroke-linecap: round"/>
    </g>
    <g id="text_21">
     <!-- 1000 -->
     <g style="fill: #262626" transform="translate(754.000312 157.34707) scale(0.2475 -0.2475)">
      <use xlink:href="#DejaVuSans-31"/>
      <use xlink:href="#DejaVuSans-30" x="63.623047"/>
      <use xlink:href="#DejaVuSans-30" x="127.246094"/>
      <use xlink:href="#DejaVuSans-30" x="190.869141"/>
     </g>
    </g>
    <g id="line2d_28">
     <path d="M 684.700312 185.01293 
L 709.450312 185.01293 
L 734.200312 185.01293 
" style="fill: none; stroke: #ee854a; stroke-width: 3; stroke-linecap: round"/>
    </g>
    <g id="text_22">
     <!-- 2000 -->
     <g style="fill: #262626" transform="translate(754.000312 193.67543) scale(0.2475 -0.2475)">
      <use xlink:href="#DejaVuSans-32"/>
      <use xlink:href="#DejaVuSans-30" x="63.623047"/>
      <use xlink:href="#DejaVuSans-30" x="127.246094"/>
      <use xlink:href="#DejaVuSans-30" x="190.869141"/>
     </g>
    </g>
    <g id="line2d_29">
     <path d="M 684.700312 221.341289 
L 709.450312 221.341289 
L 734.200312 221.341289 
" style="fill: none; stroke: #6acc64; stroke-width: 3; stroke-linecap: round"/>
    </g>
    <g id="text_23">
     <!-- 3000 -->
     <g style="fill: #262626" transform="translate(754.000312 230.003789) scale(0.2475 -0.2475)">
      <use xlink:href="#DejaVuSans-33"/>
      <use xlink:href="#DejaVuSans-30" x="63.623047"/>
      <use xlink:href="#DejaVuSans-30" x="127.246094"/>
      <use xlink:href="#DejaVuSans-30" x="190.869141"/>
     </g>
    </g>
    <g id="line2d_30">
     <path d="M 684.700312 257.669648 
L 709.450312 257.669648 
L 734.200312 257.669648 
" style="fill: none; stroke: #d65f5f; stroke-width: 3; stroke-linecap: round"/>
    </g>
    <g id="text_24">
     <!-- 4000 -->
     <g style="fill: #262626" transform="translate(754.000312 266.332148) scale(0.2475 -0.2475)">
      <use xlink:href="#DejaVuSans-34"/>
      <use xlink:href="#DejaVuSans-30" x="63.623047"/>
      <use xlink:href="#DejaVuSans-30" x="127.246094"/>
      <use xlink:href="#DejaVuSans-30" x="190.869141"/>
     </g>
    </g>
    <g id="line2d_31">
     <path d="M 684.700312 293.998008 
L 709.450312 293.998008 
L 734.200312 293.998008 
" style="fill: none; stroke: #956cb4; stroke-width: 3; stroke-linecap: round"/>
    </g>
    <g id="text_25">
     <!-- 5000 -->
     <g style="fill: #262626" transform="translate(754.000312 302.660508) scale(0.2475 -0.2475)">
      <use xlink:href="#DejaVuSans-35"/>
      <use xlink:href="#DejaVuSans-30" x="63.623047"/>
      <use xlink:href="#DejaVuSans-30" x="127.246094"/>
      <use xlink:href="#DejaVuSans-30" x="190.869141"/>
     </g>
    </g>
    <g id="line2d_32">
     <path d="M 866.489063 148.68457 
L 891.239063 148.68457 
L 915.989063 148.68457 
" style="fill: none; stroke: #8c613c; stroke-width: 3; stroke-linecap: round"/>
    </g>
    <g id="text_26">
     <!-- 6000 -->
     <g style="fill: #262626" transform="translate(935.789062 157.34707) scale(0.2475 -0.2475)">
      <use xlink:href="#DejaVuSans-36"/>
      <use xlink:href="#DejaVuSans-30" x="63.623047"/>
      <use xlink:href="#DejaVuSans-30" x="127.246094"/>
      <use xlink:href="#DejaVuSans-30" x="190.869141"/>
     </g>
    </g>
    <g id="line2d_33">
     <path d="M 866.489063 185.01293 
L 891.239063 185.01293 
L 915.989063 185.01293 
" style="fill: none; stroke: #dc7ec0; stroke-width: 3; stroke-linecap: round"/>
    </g>
    <g id="text_27">
     <!-- 7000 -->
     <g style="fill: #262626" transform="translate(935.789062 193.67543) scale(0.2475 -0.2475)">
      <use xlink:href="#DejaVuSans-37"/>
      <use xlink:href="#DejaVuSans-30" x="63.623047"/>
      <use xlink:href="#DejaVuSans-30" x="127.246094"/>
      <use xlink:href="#DejaVuSans-30" x="190.869141"/>
     </g>
    </g>
    <g id="line2d_34">
     <path d="M 866.489063 221.341289 
L 891.239063 221.341289 
L 915.989063 221.341289 
" style="fill: none; stroke: #797979; stroke-width: 3; stroke-linecap: round"/>
    </g>
    <g id="text_28">
     <!-- 8000 -->
     <g style="fill: #262626" transform="translate(935.789062 230.003789) scale(0.2475 -0.2475)">
      <use xlink:href="#DejaVuSans-38"/>
      <use xlink:href="#DejaVuSans-30" x="63.623047"/>
      <use xlink:href="#DejaVuSans-30" x="127.246094"/>
      <use xlink:href="#DejaVuSans-30" x="190.869141"/>
     </g>
    </g>
    <g id="line2d_35">
     <path d="M 866.489063 257.669648 
L 891.239063 257.669648 
L 915.989063 257.669648 
" style="fill: none; stroke: #d5bb67; stroke-width: 3; stroke-linecap: round"/>
    </g>
    <g id="text_29">
     <!-- 9000 -->
     <g style="fill: #262626" transform="translate(935.789062 266.332148) scale(0.2475 -0.2475)">
      <use xlink:href="#DejaVuSans-39"/>
      <use xlink:href="#DejaVuSans-30" x="63.623047"/>
      <use xlink:href="#DejaVuSans-30" x="127.246094"/>
      <use xlink:href="#DejaVuSans-30" x="190.869141"/>
     </g>
    </g>
    <g id="line2d_36">
     <path d="M 866.489063 293.998008 
L 891.239063 293.998008 
L 915.989063 293.998008 
" style="fill: none; stroke: #82c6e2; stroke-width: 3; stroke-linecap: round"/>
    </g>
    <g id="text_30">
     <!-- 10000 -->
     <g style="fill: #262626" transform="translate(935.789062 302.660508) scale(0.2475 -0.2475)">
      <use xlink:href="#DejaVuSans-31"/>
      <use xlink:href="#DejaVuSans-30" x="63.623047"/>
      <use xlink:href="#DejaVuSans-30" x="127.246094"/>
      <use xlink:href="#DejaVuSans-30" x="190.869141"/>
      <use xlink:href="#DejaVuSans-30" x="254.492188"/>
     </g>
    </g>
   </g>
  </g>
 </g>
 <defs>
  <clipPath id="p7a6026d64f">
   <rect x="144" y="77.76" width="892.8" height="498.96"/>
  </clipPath>
 </defs>
</svg>
