<?xml version="1.0" encoding="utf-8" standalone="no"?>
<!DOCTYPE svg PUBLIC "-//W3C//DTD SVG 1.1//EN"
  "http://www.w3.org/Graphics/SVG/1.1/DTD/svg11.dtd">
<svg xmlns:xlink="http://www.w3.org/1999/xlink" width="1152pt" height="648pt" viewBox="0 0 1152 648" xmlns="http://www.w3.org/2000/svg" version="1.1">
 <metadata>
  <rdf:RDF xmlns:dc="http://purl.org/dc/elements/1.1/" xmlns:cc="http://creativecommons.org/ns#" xmlns:rdf="http://www.w3.org/1999/02/22-rdf-syntax-ns#">
   <cc:Work>
    <dc:type rdf:resource="http://purl.org/dc/dcmitype/StillImage"/>
    <dc:date>2023-05-18T18:14:19.843412</dc:date>
    <dc:format>image/svg+xml</dc:format>
    <dc:creator>
     <cc:Agent>
      <dc:title>Matplotlib v3.7.1, https://matplotlib.org/</dc:title>
     </cc:Agent>
    </dc:creator>
   </cc:Work>
  </rdf:RDF>
 </metadata>
 <defs>
  <style type="text/css">*{stroke-linejoin: round; stroke-linecap: butt}</style>
 </defs>
 <g id="figure_1">
  <g id="patch_1">
   <path d="M 0 648 
L 1152 648 
L 1152 0 
L 0 0 
z
" style="fill: #ffffff"/>
  </g>
  <g id="axes_1">
   <g id="patch_2">
    <path d="M 144 576.72 
L 1036.8 576.72 
L 1036.8 77.76 
L 144 77.76 
z
" style="fill: #ffffff"/>
   </g>
   <g id="matplotlib.axis_1">
    <g id="xtick_1">
     <g id="line2d_1">
      <defs>
       <path id="mf572353cb7" d="M 0 0 
L 0 12 
" style="stroke: #262626; stroke-width: 2.5"/>
      </defs>
      <g>
       <use xlink:href="#mf572353cb7" x="312.734928" y="576.72" style="fill: #262626; stroke: #262626; stroke-width: 2.5"/>
      </g>
     </g>
     <g id="text_1">
      <!-- 2000 -->
      <g style="fill: #262626" transform="translate(281.240553 611.026133) scale(0.2475 -0.2475)">
       <defs>
        <path id="DejaVuSans-32" d="M 1228 531 
L 3431 531 
L 3431 0 
L 469 0 
L 469 531 
Q 828 903 1448 1529 
Q 2069 2156 2228 2338 
Q 2531 2678 2651 2914 
Q 2772 3150 2772 3378 
Q 2772 3750 2511 3984 
Q 2250 4219 1831 4219 
Q 1534 4219 1204 4116 
Q 875 4013 500 3803 
L 500 4441 
Q 881 4594 1212 4672 
Q 1544 4750 1819 4750 
Q 2544 4750 2975 4387 
Q 3406 4025 3406 3419 
Q 3406 3131 3298 2873 
Q 3191 2616 2906 2266 
Q 2828 2175 2409 1742 
Q 1991 1309 1228 531 
z
" transform="scale(0.015625)"/>
        <path id="DejaVuSans-30" d="M 2034 4250 
Q 1547 4250 1301 3770 
Q 1056 3291 1056 2328 
Q 1056 1369 1301 889 
Q 1547 409 2034 409 
Q 2525 409 2770 889 
Q 3016 1369 3016 2328 
Q 3016 3291 2770 3770 
Q 2525 4250 2034 4250 
z
M 2034 4750 
Q 2819 4750 3233 4129 
Q 3647 3509 3647 2328 
Q 3647 1150 3233 529 
Q 2819 -91 2034 -91 
Q 1250 -91 836 529 
Q 422 1150 422 2328 
Q 422 3509 836 4129 
Q 1250 4750 2034 4750 
z
" transform="scale(0.015625)"/>
       </defs>
       <use xlink:href="#DejaVuSans-32"/>
       <use xlink:href="#DejaVuSans-30" x="63.623047"/>
       <use xlink:href="#DejaVuSans-30" x="127.246094"/>
       <use xlink:href="#DejaVuSans-30" x="190.869141"/>
      </g>
     </g>
    </g>
    <g id="xtick_2">
     <g id="line2d_2">
      <g>
       <use xlink:href="#mf572353cb7" x="483.605742" y="576.72" style="fill: #262626; stroke: #262626; stroke-width: 2.5"/>
      </g>
     </g>
     <g id="text_2">
      <!-- 4000 -->
      <g style="fill: #262626" transform="translate(452.111367 611.026133) scale(0.2475 -0.2475)">
       <defs>
        <path id="DejaVuSans-34" d="M 2419 4116 
L 825 1625 
L 2419 1625 
L 2419 4116 
z
M 2253 4666 
L 3047 4666 
L 3047 1625 
L 3713 1625 
L 3713 1100 
L 3047 1100 
L 3047 0 
L 2419 0 
L 2419 1100 
L 313 1100 
L 313 1709 
L 2253 4666 
z
" transform="scale(0.015625)"/>
       </defs>
       <use xlink:href="#DejaVuSans-34"/>
       <use xlink:href="#DejaVuSans-30" x="63.623047"/>
       <use xlink:href="#DejaVuSans-30" x="127.246094"/>
       <use xlink:href="#DejaVuSans-30" x="190.869141"/>
      </g>
     </g>
    </g>
    <g id="xtick_3">
     <g id="line2d_3">
      <g>
       <use xlink:href="#mf572353cb7" x="654.476555" y="576.72" style="fill: #262626; stroke: #262626; stroke-width: 2.5"/>
      </g>
     </g>
     <g id="text_3">
      <!-- 6000 -->
      <g style="fill: #262626" transform="translate(622.98218 611.026133) scale(0.2475 -0.2475)">
       <defs>
        <path id="DejaVuSans-36" d="M 2113 2584 
Q 1688 2584 1439 2293 
Q 1191 2003 1191 1497 
Q 1191 994 1439 701 
Q 1688 409 2113 409 
Q 2538 409 2786 701 
Q 3034 994 3034 1497 
Q 3034 2003 2786 2293 
Q 2538 2584 2113 2584 
z
M 3366 4563 
L 3366 3988 
Q 3128 4100 2886 4159 
Q 2644 4219 2406 4219 
Q 1781 4219 1451 3797 
Q 1122 3375 1075 2522 
Q 1259 2794 1537 2939 
Q 1816 3084 2150 3084 
Q 2853 3084 3261 2657 
Q 3669 2231 3669 1497 
Q 3669 778 3244 343 
Q 2819 -91 2113 -91 
Q 1303 -91 875 529 
Q 447 1150 447 2328 
Q 447 3434 972 4092 
Q 1497 4750 2381 4750 
Q 2619 4750 2861 4703 
Q 3103 4656 3366 4563 
z
" transform="scale(0.015625)"/>
       </defs>
       <use xlink:href="#DejaVuSans-36"/>
       <use xlink:href="#DejaVuSans-30" x="63.623047"/>
       <use xlink:href="#DejaVuSans-30" x="127.246094"/>
       <use xlink:href="#DejaVuSans-30" x="190.869141"/>
      </g>
     </g>
    </g>
    <g id="xtick_4">
     <g id="line2d_4">
      <g>
       <use xlink:href="#mf572353cb7" x="825.347368" y="576.72" style="fill: #262626; stroke: #262626; stroke-width: 2.5"/>
      </g>
     </g>
     <g id="text_4">
      <!-- 8000 -->
      <g style="fill: #262626" transform="translate(793.852993 611.026133) scale(0.2475 -0.2475)">
       <defs>
        <path id="DejaVuSans-38" d="M 2034 2216 
Q 1584 2216 1326 1975 
Q 1069 1734 1069 1313 
Q 1069 891 1326 650 
Q 1584 409 2034 409 
Q 2484 409 2743 651 
Q 3003 894 3003 1313 
Q 3003 1734 2745 1975 
Q 2488 2216 2034 2216 
z
M 1403 2484 
Q 997 2584 770 2862 
Q 544 3141 544 3541 
Q 544 4100 942 4425 
Q 1341 4750 2034 4750 
Q 2731 4750 3128 4425 
Q 3525 4100 3525 3541 
Q 3525 3141 3298 2862 
Q 3072 2584 2669 2484 
Q 3125 2378 3379 2068 
Q 3634 1759 3634 1313 
Q 3634 634 3220 271 
Q 2806 -91 2034 -91 
Q 1263 -91 848 271 
Q 434 634 434 1313 
Q 434 1759 690 2068 
Q 947 2378 1403 2484 
z
M 1172 3481 
Q 1172 3119 1398 2916 
Q 1625 2713 2034 2713 
Q 2441 2713 2670 2916 
Q 2900 3119 2900 3481 
Q 2900 3844 2670 4047 
Q 2441 4250 2034 4250 
Q 1625 4250 1398 4047 
Q 1172 3844 1172 3481 
z
" transform="scale(0.015625)"/>
       </defs>
       <use xlink:href="#DejaVuSans-38"/>
       <use xlink:href="#DejaVuSans-30" x="63.623047"/>
       <use xlink:href="#DejaVuSans-30" x="127.246094"/>
       <use xlink:href="#DejaVuSans-30" x="190.869141"/>
      </g>
     </g>
    </g>
    <g id="xtick_5">
     <g id="line2d_5">
      <g>
       <use xlink:href="#mf572353cb7" x="996.218182" y="576.72" style="fill: #262626; stroke: #262626; stroke-width: 2.5"/>
      </g>
     </g>
     <g id="text_5">
      <!-- 10000 -->
      <g style="fill: #262626" transform="translate(956.850213 611.026133) scale(0.2475 -0.2475)">
       <defs>
        <path id="DejaVuSans-31" d="M 794 531 
L 1825 531 
L 1825 4091 
L 703 3866 
L 703 4441 
L 1819 4666 
L 2450 4666 
L 2450 531 
L 3481 531 
L 3481 0 
L 794 0 
L 794 531 
z
" transform="scale(0.015625)"/>
       </defs>
       <use xlink:href="#DejaVuSans-31"/>
       <use xlink:href="#DejaVuSans-30" x="63.623047"/>
       <use xlink:href="#DejaVuSans-30" x="127.246094"/>
       <use xlink:href="#DejaVuSans-30" x="190.869141"/>
       <use xlink:href="#DejaVuSans-30" x="254.492188"/>
      </g>
     </g>
    </g>
    <g id="text_6">
     <!-- Number of Taxa -->
     <g style="fill: #262626" transform="translate(484.02 640.689141) scale(0.27 -0.27)">
      <defs>
       <path id="DejaVuSans-4e" d="M 628 4666 
L 1478 4666 
L 3547 763 
L 3547 4666 
L 4159 4666 
L 4159 0 
L 3309 0 
L 1241 3903 
L 1241 0 
L 628 0 
L 628 4666 
z
" transform="scale(0.015625)"/>
       <path id="DejaVuSans-75" d="M 544 1381 
L 544 3500 
L 1119 3500 
L 1119 1403 
Q 1119 906 1312 657 
Q 1506 409 1894 409 
Q 2359 409 2629 706 
Q 2900 1003 2900 1516 
L 2900 3500 
L 3475 3500 
L 3475 0 
L 2900 0 
L 2900 538 
Q 2691 219 2414 64 
Q 2138 -91 1772 -91 
Q 1169 -91 856 284 
Q 544 659 544 1381 
z
M 1991 3584 
L 1991 3584 
z
" transform="scale(0.015625)"/>
       <path id="DejaVuSans-6d" d="M 3328 2828 
Q 3544 3216 3844 3400 
Q 4144 3584 4550 3584 
Q 5097 3584 5394 3201 
Q 5691 2819 5691 2113 
L 5691 0 
L 5113 0 
L 5113 2094 
Q 5113 2597 4934 2840 
Q 4756 3084 4391 3084 
Q 3944 3084 3684 2787 
Q 3425 2491 3425 1978 
L 3425 0 
L 2847 0 
L 2847 2094 
Q 2847 2600 2669 2842 
Q 2491 3084 2119 3084 
Q 1678 3084 1418 2786 
Q 1159 2488 1159 1978 
L 1159 0 
L 581 0 
L 581 3500 
L 1159 3500 
L 1159 2956 
Q 1356 3278 1631 3431 
Q 1906 3584 2284 3584 
Q 2666 3584 2933 3390 
Q 3200 3197 3328 2828 
z
" transform="scale(0.015625)"/>
       <path id="DejaVuSans-62" d="M 3116 1747 
Q 3116 2381 2855 2742 
Q 2594 3103 2138 3103 
Q 1681 3103 1420 2742 
Q 1159 2381 1159 1747 
Q 1159 1113 1420 752 
Q 1681 391 2138 391 
Q 2594 391 2855 752 
Q 3116 1113 3116 1747 
z
M 1159 2969 
Q 1341 3281 1617 3432 
Q 1894 3584 2278 3584 
Q 2916 3584 3314 3078 
Q 3713 2572 3713 1747 
Q 3713 922 3314 415 
Q 2916 -91 2278 -91 
Q 1894 -91 1617 61 
Q 1341 213 1159 525 
L 1159 0 
L 581 0 
L 581 4863 
L 1159 4863 
L 1159 2969 
z
" transform="scale(0.015625)"/>
       <path id="DejaVuSans-65" d="M 3597 1894 
L 3597 1613 
L 953 1613 
Q 991 1019 1311 708 
Q 1631 397 2203 397 
Q 2534 397 2845 478 
Q 3156 559 3463 722 
L 3463 178 
Q 3153 47 2828 -22 
Q 2503 -91 2169 -91 
Q 1331 -91 842 396 
Q 353 884 353 1716 
Q 353 2575 817 3079 
Q 1281 3584 2069 3584 
Q 2775 3584 3186 3129 
Q 3597 2675 3597 1894 
z
M 3022 2063 
Q 3016 2534 2758 2815 
Q 2500 3097 2075 3097 
Q 1594 3097 1305 2825 
Q 1016 2553 972 2059 
L 3022 2063 
z
" transform="scale(0.015625)"/>
       <path id="DejaVuSans-72" d="M 2631 2963 
Q 2534 3019 2420 3045 
Q 2306 3072 2169 3072 
Q 1681 3072 1420 2755 
Q 1159 2438 1159 1844 
L 1159 0 
L 581 0 
L 581 3500 
L 1159 3500 
L 1159 2956 
Q 1341 3275 1631 3429 
Q 1922 3584 2338 3584 
Q 2397 3584 2469 3576 
Q 2541 3569 2628 3553 
L 2631 2963 
z
" transform="scale(0.015625)"/>
       <path id="DejaVuSans-20" transform="scale(0.015625)"/>
       <path id="DejaVuSans-6f" d="M 1959 3097 
Q 1497 3097 1228 2736 
Q 959 2375 959 1747 
Q 959 1119 1226 758 
Q 1494 397 1959 397 
Q 2419 397 2687 759 
Q 2956 1122 2956 1747 
Q 2956 2369 2687 2733 
Q 2419 3097 1959 3097 
z
M 1959 3584 
Q 2709 3584 3137 3096 
Q 3566 2609 3566 1747 
Q 3566 888 3137 398 
Q 2709 -91 1959 -91 
Q 1206 -91 779 398 
Q 353 888 353 1747 
Q 353 2609 779 3096 
Q 1206 3584 1959 3584 
z
" transform="scale(0.015625)"/>
       <path id="DejaVuSans-66" d="M 2375 4863 
L 2375 4384 
L 1825 4384 
Q 1516 4384 1395 4259 
Q 1275 4134 1275 3809 
L 1275 3500 
L 2222 3500 
L 2222 3053 
L 1275 3053 
L 1275 0 
L 697 0 
L 697 3053 
L 147 3053 
L 147 3500 
L 697 3500 
L 697 3744 
Q 697 4328 969 4595 
Q 1241 4863 1831 4863 
L 2375 4863 
z
" transform="scale(0.015625)"/>
       <path id="DejaVuSans-54" d="M -19 4666 
L 3928 4666 
L 3928 4134 
L 2272 4134 
L 2272 0 
L 1638 0 
L 1638 4134 
L -19 4134 
L -19 4666 
z
" transform="scale(0.015625)"/>
       <path id="DejaVuSans-61" d="M 2194 1759 
Q 1497 1759 1228 1600 
Q 959 1441 959 1056 
Q 959 750 1161 570 
Q 1363 391 1709 391 
Q 2188 391 2477 730 
Q 2766 1069 2766 1631 
L 2766 1759 
L 2194 1759 
z
M 3341 1997 
L 3341 0 
L 2766 0 
L 2766 531 
Q 2569 213 2275 61 
Q 1981 -91 1556 -91 
Q 1019 -91 701 211 
Q 384 513 384 1019 
Q 384 1609 779 1909 
Q 1175 2209 1959 2209 
L 2766 2209 
L 2766 2266 
Q 2766 2663 2505 2880 
Q 2244 3097 1772 3097 
Q 1472 3097 1187 3025 
Q 903 2953 641 2809 
L 641 3341 
Q 956 3463 1253 3523 
Q 1550 3584 1831 3584 
Q 2591 3584 2966 3190 
Q 3341 2797 3341 1997 
z
" transform="scale(0.015625)"/>
       <path id="DejaVuSans-78" d="M 3513 3500 
L 2247 1797 
L 3578 0 
L 2900 0 
L 1881 1375 
L 863 0 
L 184 0 
L 1544 1831 
L 300 3500 
L 978 3500 
L 1906 2253 
L 2834 3500 
L 3513 3500 
z
" transform="scale(0.015625)"/>
      </defs>
      <use xlink:href="#DejaVuSans-4e"/>
      <use xlink:href="#DejaVuSans-75" x="74.804688"/>
      <use xlink:href="#DejaVuSans-6d" x="138.183594"/>
      <use xlink:href="#DejaVuSans-62" x="235.595703"/>
      <use xlink:href="#DejaVuSans-65" x="299.072266"/>
      <use xlink:href="#DejaVuSans-72" x="360.595703"/>
      <use xlink:href="#DejaVuSans-20" x="401.708984"/>
      <use xlink:href="#DejaVuSans-6f" x="433.496094"/>
      <use xlink:href="#DejaVuSans-66" x="494.677734"/>
      <use xlink:href="#DejaVuSans-20" x="529.882812"/>
      <use xlink:href="#DejaVuSans-54" x="561.669922"/>
      <use xlink:href="#DejaVuSans-61" x="606.253906"/>
      <use xlink:href="#DejaVuSans-78" x="667.533203"/>
      <use xlink:href="#DejaVuSans-61" x="726.712891"/>
     </g>
    </g>
   </g>
   <g id="matplotlib.axis_2">
    <g id="ytick_1">
     <g id="line2d_6">
      <defs>
       <path id="mfee4beec60" d="M 0 0 
L -12 0 
" style="stroke: #262626; stroke-width: 2.5"/>
      </defs>
      <g>
       <use xlink:href="#mfee4beec60" x="144" y="560.238831" style="fill: #262626; stroke: #262626; stroke-width: 2.5"/>
      </g>
     </g>
     <g id="text_7">
      <!-- 0 -->
      <g style="fill: #262626" transform="translate(112.752813 569.641897) scale(0.2475 -0.2475)">
       <use xlink:href="#DejaVuSans-30"/>
      </g>
     </g>
    </g>
    <g id="ytick_2">
     <g id="line2d_7">
      <g>
       <use xlink:href="#mfee4beec60" x="144" y="498.634865" style="fill: #262626; stroke: #262626; stroke-width: 2.5"/>
      </g>
     </g>
     <g id="text_8">
      <!-- 25 -->
      <g style="fill: #262626" transform="translate(97.005625 508.037931) scale(0.2475 -0.2475)">
       <defs>
        <path id="DejaVuSans-35" d="M 691 4666 
L 3169 4666 
L 3169 4134 
L 1269 4134 
L 1269 2991 
Q 1406 3038 1543 3061 
Q 1681 3084 1819 3084 
Q 2600 3084 3056 2656 
Q 3513 2228 3513 1497 
Q 3513 744 3044 326 
Q 2575 -91 1722 -91 
Q 1428 -91 1123 -41 
Q 819 9 494 109 
L 494 744 
Q 775 591 1075 516 
Q 1375 441 1709 441 
Q 2250 441 2565 725 
Q 2881 1009 2881 1497 
Q 2881 1984 2565 2268 
Q 2250 2553 1709 2553 
Q 1456 2553 1204 2497 
Q 953 2441 691 2322 
L 691 4666 
z
" transform="scale(0.015625)"/>
       </defs>
       <use xlink:href="#DejaVuSans-32"/>
       <use xlink:href="#DejaVuSans-35" x="63.623047"/>
      </g>
     </g>
    </g>
    <g id="ytick_3">
     <g id="line2d_8">
      <g>
       <use xlink:href="#mfee4beec60" x="144" y="437.030899" style="fill: #262626; stroke: #262626; stroke-width: 2.5"/>
      </g>
     </g>
     <g id="text_9">
      <!-- 50 -->
      <g style="fill: #262626" transform="translate(97.005625 446.433965) scale(0.2475 -0.2475)">
       <use xlink:href="#DejaVuSans-35"/>
       <use xlink:href="#DejaVuSans-30" x="63.623047"/>
      </g>
     </g>
    </g>
    <g id="ytick_4">
     <g id="line2d_9">
      <g>
       <use xlink:href="#mfee4beec60" x="144" y="375.426933" style="fill: #262626; stroke: #262626; stroke-width: 2.5"/>
      </g>
     </g>
     <g id="text_10">
      <!-- 75 -->
      <g style="fill: #262626" transform="translate(97.005625 384.83) scale(0.2475 -0.2475)">
       <defs>
        <path id="DejaVuSans-37" d="M 525 4666 
L 3525 4666 
L 3525 4397 
L 1831 0 
L 1172 0 
L 2766 4134 
L 525 4134 
L 525 4666 
z
" transform="scale(0.015625)"/>
       </defs>
       <use xlink:href="#DejaVuSans-37"/>
       <use xlink:href="#DejaVuSans-35" x="63.623047"/>
      </g>
     </g>
    </g>
    <g id="ytick_5">
     <g id="line2d_10">
      <g>
       <use xlink:href="#mfee4beec60" x="144" y="313.822968" style="fill: #262626; stroke: #262626; stroke-width: 2.5"/>
      </g>
     </g>
     <g id="text_11">
      <!-- 100 -->
      <g style="fill: #262626" transform="translate(81.258437 323.226034) scale(0.2475 -0.2475)">
       <use xlink:href="#DejaVuSans-31"/>
       <use xlink:href="#DejaVuSans-30" x="63.623047"/>
       <use xlink:href="#DejaVuSans-30" x="127.246094"/>
      </g>
     </g>
    </g>
    <g id="ytick_6">
     <g id="line2d_11">
      <g>
       <use xlink:href="#mfee4beec60" x="144" y="252.219002" style="fill: #262626; stroke: #262626; stroke-width: 2.5"/>
      </g>
     </g>
     <g id="text_12">
      <!-- 125 -->
      <g style="fill: #262626" transform="translate(81.258437 261.622068) scale(0.2475 -0.2475)">
       <use xlink:href="#DejaVuSans-31"/>
       <use xlink:href="#DejaVuSans-32" x="63.623047"/>
       <use xlink:href="#DejaVuSans-35" x="127.246094"/>
      </g>
     </g>
    </g>
    <g id="ytick_7">
     <g id="line2d_12">
      <g>
       <use xlink:href="#mfee4beec60" x="144" y="190.615036" style="fill: #262626; stroke: #262626; stroke-width: 2.5"/>
      </g>
     </g>
     <g id="text_13">
      <!-- 150 -->
      <g style="fill: #262626" transform="translate(81.258437 200.018103) scale(0.2475 -0.2475)">
       <use xlink:href="#DejaVuSans-31"/>
       <use xlink:href="#DejaVuSans-35" x="63.623047"/>
       <use xlink:href="#DejaVuSans-30" x="127.246094"/>
      </g>
     </g>
    </g>
    <g id="ytick_8">
     <g id="line2d_13">
      <g>
       <use xlink:href="#mfee4beec60" x="144" y="129.01107" style="fill: #262626; stroke: #262626; stroke-width: 2.5"/>
      </g>
     </g>
     <g id="text_14">
      <!-- 175 -->
      <g style="fill: #262626" transform="translate(81.258437 138.414137) scale(0.2475 -0.2475)">
       <use xlink:href="#DejaVuSans-31"/>
       <use xlink:href="#DejaVuSans-37" x="63.623047"/>
       <use xlink:href="#DejaVuSans-35" x="127.246094"/>
      </g>
     </g>
    </g>
    <g id="text_15">
     <!-- Time per Iteration (Seconds) -->
     <g style="fill: #262626" transform="translate(71.643281 520.085391) rotate(-90) scale(0.27 -0.27)">
      <defs>
       <path id="DejaVuSans-69" d="M 603 3500 
L 1178 3500 
L 1178 0 
L 603 0 
L 603 3500 
z
M 603 4863 
L 1178 4863 
L 1178 4134 
L 603 4134 
L 603 4863 
z
" transform="scale(0.015625)"/>
       <path id="DejaVuSans-70" d="M 1159 525 
L 1159 -1331 
L 581 -1331 
L 581 3500 
L 1159 3500 
L 1159 2969 
Q 1341 3281 1617 3432 
Q 1894 3584 2278 3584 
Q 2916 3584 3314 3078 
Q 3713 2572 3713 1747 
Q 3713 922 3314 415 
Q 2916 -91 2278 -91 
Q 1894 -91 1617 61 
Q 1341 213 1159 525 
z
M 3116 1747 
Q 3116 2381 2855 2742 
Q 2594 3103 2138 3103 
Q 1681 3103 1420 2742 
Q 1159 2381 1159 1747 
Q 1159 1113 1420 752 
Q 1681 391 2138 391 
Q 2594 391 2855 752 
Q 3116 1113 3116 1747 
z
" transform="scale(0.015625)"/>
       <path id="DejaVuSans-49" d="M 628 4666 
L 1259 4666 
L 1259 0 
L 628 0 
L 628 4666 
z
" transform="scale(0.015625)"/>
       <path id="DejaVuSans-74" d="M 1172 4494 
L 1172 3500 
L 2356 3500 
L 2356 3053 
L 1172 3053 
L 1172 1153 
Q 1172 725 1289 603 
Q 1406 481 1766 481 
L 2356 481 
L 2356 0 
L 1766 0 
Q 1100 0 847 248 
Q 594 497 594 1153 
L 594 3053 
L 172 3053 
L 172 3500 
L 594 3500 
L 594 4494 
L 1172 4494 
z
" transform="scale(0.015625)"/>
       <path id="DejaVuSans-6e" d="M 3513 2113 
L 3513 0 
L 2938 0 
L 2938 2094 
Q 2938 2591 2744 2837 
Q 2550 3084 2163 3084 
Q 1697 3084 1428 2787 
Q 1159 2491 1159 1978 
L 1159 0 
L 581 0 
L 581 3500 
L 1159 3500 
L 1159 2956 
Q 1366 3272 1645 3428 
Q 1925 3584 2291 3584 
Q 2894 3584 3203 3211 
Q 3513 2838 3513 2113 
z
" transform="scale(0.015625)"/>
       <path id="DejaVuSans-28" d="M 1984 4856 
Q 1566 4138 1362 3434 
Q 1159 2731 1159 2009 
Q 1159 1288 1364 580 
Q 1569 -128 1984 -844 
L 1484 -844 
Q 1016 -109 783 600 
Q 550 1309 550 2009 
Q 550 2706 781 3412 
Q 1013 4119 1484 4856 
L 1984 4856 
z
" transform="scale(0.015625)"/>
       <path id="DejaVuSans-53" d="M 3425 4513 
L 3425 3897 
Q 3066 4069 2747 4153 
Q 2428 4238 2131 4238 
Q 1616 4238 1336 4038 
Q 1056 3838 1056 3469 
Q 1056 3159 1242 3001 
Q 1428 2844 1947 2747 
L 2328 2669 
Q 3034 2534 3370 2195 
Q 3706 1856 3706 1288 
Q 3706 609 3251 259 
Q 2797 -91 1919 -91 
Q 1588 -91 1214 -16 
Q 841 59 441 206 
L 441 856 
Q 825 641 1194 531 
Q 1563 422 1919 422 
Q 2459 422 2753 634 
Q 3047 847 3047 1241 
Q 3047 1584 2836 1778 
Q 2625 1972 2144 2069 
L 1759 2144 
Q 1053 2284 737 2584 
Q 422 2884 422 3419 
Q 422 4038 858 4394 
Q 1294 4750 2059 4750 
Q 2388 4750 2728 4690 
Q 3069 4631 3425 4513 
z
" transform="scale(0.015625)"/>
       <path id="DejaVuSans-63" d="M 3122 3366 
L 3122 2828 
Q 2878 2963 2633 3030 
Q 2388 3097 2138 3097 
Q 1578 3097 1268 2742 
Q 959 2388 959 1747 
Q 959 1106 1268 751 
Q 1578 397 2138 397 
Q 2388 397 2633 464 
Q 2878 531 3122 666 
L 3122 134 
Q 2881 22 2623 -34 
Q 2366 -91 2075 -91 
Q 1284 -91 818 406 
Q 353 903 353 1747 
Q 353 2603 823 3093 
Q 1294 3584 2113 3584 
Q 2378 3584 2631 3529 
Q 2884 3475 3122 3366 
z
" transform="scale(0.015625)"/>
       <path id="DejaVuSans-64" d="M 2906 2969 
L 2906 4863 
L 3481 4863 
L 3481 0 
L 2906 0 
L 2906 525 
Q 2725 213 2448 61 
Q 2172 -91 1784 -91 
Q 1150 -91 751 415 
Q 353 922 353 1747 
Q 353 2572 751 3078 
Q 1150 3584 1784 3584 
Q 2172 3584 2448 3432 
Q 2725 3281 2906 2969 
z
M 947 1747 
Q 947 1113 1208 752 
Q 1469 391 1925 391 
Q 2381 391 2643 752 
Q 2906 1113 2906 1747 
Q 2906 2381 2643 2742 
Q 2381 3103 1925 3103 
Q 1469 3103 1208 2742 
Q 947 2381 947 1747 
z
" transform="scale(0.015625)"/>
       <path id="DejaVuSans-73" d="M 2834 3397 
L 2834 2853 
Q 2591 2978 2328 3040 
Q 2066 3103 1784 3103 
Q 1356 3103 1142 2972 
Q 928 2841 928 2578 
Q 928 2378 1081 2264 
Q 1234 2150 1697 2047 
L 1894 2003 
Q 2506 1872 2764 1633 
Q 3022 1394 3022 966 
Q 3022 478 2636 193 
Q 2250 -91 1575 -91 
Q 1294 -91 989 -36 
Q 684 19 347 128 
L 347 722 
Q 666 556 975 473 
Q 1284 391 1588 391 
Q 1994 391 2212 530 
Q 2431 669 2431 922 
Q 2431 1156 2273 1281 
Q 2116 1406 1581 1522 
L 1381 1569 
Q 847 1681 609 1914 
Q 372 2147 372 2553 
Q 372 3047 722 3315 
Q 1072 3584 1716 3584 
Q 2034 3584 2315 3537 
Q 2597 3491 2834 3397 
z
" transform="scale(0.015625)"/>
       <path id="DejaVuSans-29" d="M 513 4856 
L 1013 4856 
Q 1481 4119 1714 3412 
Q 1947 2706 1947 2009 
Q 1947 1309 1714 600 
Q 1481 -109 1013 -844 
L 513 -844 
Q 928 -128 1133 580 
Q 1338 1288 1338 2009 
Q 1338 2731 1133 3434 
Q 928 4138 513 4856 
z
" transform="scale(0.015625)"/>
      </defs>
      <use xlink:href="#DejaVuSans-54"/>
      <use xlink:href="#DejaVuSans-69" x="57.958984"/>
      <use xlink:href="#DejaVuSans-6d" x="85.742188"/>
      <use xlink:href="#DejaVuSans-65" x="183.154297"/>
      <use xlink:href="#DejaVuSans-20" x="244.677734"/>
      <use xlink:href="#DejaVuSans-70" x="276.464844"/>
      <use xlink:href="#DejaVuSans-65" x="339.941406"/>
      <use xlink:href="#DejaVuSans-72" x="401.464844"/>
      <use xlink:href="#DejaVuSans-20" x="442.578125"/>
      <use xlink:href="#DejaVuSans-49" x="474.365234"/>
      <use xlink:href="#DejaVuSans-74" x="503.857422"/>
      <use xlink:href="#DejaVuSans-65" x="543.066406"/>
      <use xlink:href="#DejaVuSans-72" x="604.589844"/>
      <use xlink:href="#DejaVuSans-61" x="645.703125"/>
      <use xlink:href="#DejaVuSans-74" x="706.982422"/>
      <use xlink:href="#DejaVuSans-69" x="746.191406"/>
      <use xlink:href="#DejaVuSans-6f" x="773.974609"/>
      <use xlink:href="#DejaVuSans-6e" x="835.15625"/>
      <use xlink:href="#DejaVuSans-20" x="898.535156"/>
      <use xlink:href="#DejaVuSans-28" x="930.322266"/>
      <use xlink:href="#DejaVuSans-53" x="969.335938"/>
      <use xlink:href="#DejaVuSans-65" x="1032.8125"/>
      <use xlink:href="#DejaVuSans-63" x="1094.335938"/>
      <use xlink:href="#DejaVuSans-6f" x="1149.316406"/>
      <use xlink:href="#DejaVuSans-6e" x="1210.498047"/>
      <use xlink:href="#DejaVuSans-64" x="1273.876953"/>
      <use xlink:href="#DejaVuSans-73" x="1337.353516"/>
      <use xlink:href="#DejaVuSans-29" x="1389.453125"/>
     </g>
    </g>
   </g>
   <g id="PathCollection_1">
    <defs>
     <path id="m74ac8997ca" d="M 0 6 
C 1.591219 6 3.117479 5.367802 4.242641 4.242641 
C 5.367802 3.117479 6 1.591219 6 0 
C 6 -1.591219 5.367802 -3.117479 4.242641 -4.242641 
C 3.117479 -5.367802 1.591219 -6 0 -6 
C -1.591219 -6 -3.117479 -5.367802 -4.242641 -4.242641 
C -5.367802 -3.117479 -6 -1.591219 -6 0 
C -6 1.591219 -5.367802 3.117479 -4.242641 4.242641 
C -3.117479 5.367802 -1.591219 6 0 6 
z
" style="stroke: #4878d0; stroke-width: 2"/>
    </defs>
    <g clip-path="url(#pcdc5f4eb6d)">
     <use xlink:href="#m74ac8997ca" x="184.581818" y="554.04" style="fill: #4878d0; stroke: #4878d0; stroke-width: 2"/>
     <use xlink:href="#m74ac8997ca" x="227.299522" y="548.037001" style="fill: #4878d0; stroke: #4878d0; stroke-width: 2"/>
     <use xlink:href="#m74ac8997ca" x="270.017225" y="545.96071" style="fill: #4878d0; stroke: #4878d0; stroke-width: 2"/>
     <use xlink:href="#m74ac8997ca" x="312.734928" y="540.839331" style="fill: #4878d0; stroke: #4878d0; stroke-width: 2"/>
     <use xlink:href="#m74ac8997ca" x="355.452632" y="531.33841" style="fill: #4878d0; stroke: #4878d0; stroke-width: 2"/>
     <use xlink:href="#m74ac8997ca" x="398.170335" y="528.708429" style="fill: #4878d0; stroke: #4878d0; stroke-width: 2"/>
     <use xlink:href="#m74ac8997ca" x="440.888038" y="506.511796" style="fill: #4878d0; stroke: #4878d0; stroke-width: 2"/>
     <use xlink:href="#m74ac8997ca" x="483.605742" y="514.040554" style="fill: #4878d0; stroke: #4878d0; stroke-width: 2"/>
     <use xlink:href="#m74ac8997ca" x="526.323445" y="491.632558" style="fill: #4878d0; stroke: #4878d0; stroke-width: 2"/>
     <use xlink:href="#m74ac8997ca" x="569.041148" y="495.578127" style="fill: #4878d0; stroke: #4878d0; stroke-width: 2"/>
     <use xlink:href="#m74ac8997ca" x="611.758852" y="481.410297" style="fill: #4878d0; stroke: #4878d0; stroke-width: 2"/>
     <use xlink:href="#m74ac8997ca" x="654.476555" y="459.134534" style="fill: #4878d0; stroke: #4878d0; stroke-width: 2"/>
     <use xlink:href="#m74ac8997ca" x="697.194258" y="448.693099" style="fill: #4878d0; stroke: #4878d0; stroke-width: 2"/>
     <use xlink:href="#m74ac8997ca" x="739.911962" y="424.055933" style="fill: #4878d0; stroke: #4878d0; stroke-width: 2"/>
     <use xlink:href="#m74ac8997ca" x="782.629665" y="396.756545" style="fill: #4878d0; stroke: #4878d0; stroke-width: 2"/>
     <use xlink:href="#m74ac8997ca" x="825.347368" y="382.615394" style="fill: #4878d0; stroke: #4878d0; stroke-width: 2"/>
     <use xlink:href="#m74ac8997ca" x="868.065072" y="290.624666" style="fill: #4878d0; stroke: #4878d0; stroke-width: 2"/>
     <use xlink:href="#m74ac8997ca" x="910.782775" y="334.98532" style="fill: #4878d0; stroke: #4878d0; stroke-width: 2"/>
     <use xlink:href="#m74ac8997ca" x="953.500478" y="181.040011" style="fill: #4878d0; stroke: #4878d0; stroke-width: 2"/>
     <use xlink:href="#m74ac8997ca" x="996.218182" y="282.807621" style="fill: #4878d0; stroke: #4878d0; stroke-width: 2"/>
     <use xlink:href="#m74ac8997ca" x="184.581818" y="552.692555" style="fill: #4878d0; stroke: #4878d0; stroke-width: 2"/>
     <use xlink:href="#m74ac8997ca" x="227.299522" y="545.271915" style="fill: #4878d0; stroke: #4878d0; stroke-width: 2"/>
     <use xlink:href="#m74ac8997ca" x="270.017225" y="544.584982" style="fill: #4878d0; stroke: #4878d0; stroke-width: 2"/>
     <use xlink:href="#m74ac8997ca" x="312.734928" y="543.115717" style="fill: #4878d0; stroke: #4878d0; stroke-width: 2"/>
     <use xlink:href="#m74ac8997ca" x="355.452632" y="533.934706" style="fill: #4878d0; stroke: #4878d0; stroke-width: 2"/>
     <use xlink:href="#m74ac8997ca" x="398.170335" y="532.226924" style="fill: #4878d0; stroke: #4878d0; stroke-width: 2"/>
     <use xlink:href="#m74ac8997ca" x="440.888038" y="517.639929" style="fill: #4878d0; stroke: #4878d0; stroke-width: 2"/>
     <use xlink:href="#m74ac8997ca" x="483.605742" y="484.208244" style="fill: #4878d0; stroke: #4878d0; stroke-width: 2"/>
     <use xlink:href="#m74ac8997ca" x="526.323445" y="480.250027" style="fill: #4878d0; stroke: #4878d0; stroke-width: 2"/>
     <use xlink:href="#m74ac8997ca" x="569.041148" y="473.739743" style="fill: #4878d0; stroke: #4878d0; stroke-width: 2"/>
     <use xlink:href="#m74ac8997ca" x="611.758852" y="476.486272" style="fill: #4878d0; stroke: #4878d0; stroke-width: 2"/>
     <use xlink:href="#m74ac8997ca" x="654.476555" y="416.15868" style="fill: #4878d0; stroke: #4878d0; stroke-width: 2"/>
     <use xlink:href="#m74ac8997ca" x="697.194258" y="456.210507" style="fill: #4878d0; stroke: #4878d0; stroke-width: 2"/>
     <use xlink:href="#m74ac8997ca" x="739.911962" y="423.616343" style="fill: #4878d0; stroke: #4878d0; stroke-width: 2"/>
     <use xlink:href="#m74ac8997ca" x="782.629665" y="432.000334" style="fill: #4878d0; stroke: #4878d0; stroke-width: 2"/>
     <use xlink:href="#m74ac8997ca" x="825.347368" y="397.237029" style="fill: #4878d0; stroke: #4878d0; stroke-width: 2"/>
     <use xlink:href="#m74ac8997ca" x="868.065072" y="367.493784" style="fill: #4878d0; stroke: #4878d0; stroke-width: 2"/>
     <use xlink:href="#m74ac8997ca" x="910.782775" y="353.283486" style="fill: #4878d0; stroke: #4878d0; stroke-width: 2"/>
     <use xlink:href="#m74ac8997ca" x="953.500478" y="100.44" style="fill: #4878d0; stroke: #4878d0; stroke-width: 2"/>
     <use xlink:href="#m74ac8997ca" x="996.218182" y="242.742669" style="fill: #4878d0; stroke: #4878d0; stroke-width: 2"/>
     <use xlink:href="#m74ac8997ca" x="184.581818" y="553.398377" style="fill: #4878d0; stroke: #4878d0; stroke-width: 2"/>
     <use xlink:href="#m74ac8997ca" x="227.299522" y="550.491257" style="fill: #4878d0; stroke: #4878d0; stroke-width: 2"/>
     <use xlink:href="#m74ac8997ca" x="270.017225" y="542.826222" style="fill: #4878d0; stroke: #4878d0; stroke-width: 2"/>
     <use xlink:href="#m74ac8997ca" x="312.734928" y="538.688329" style="fill: #4878d0; stroke: #4878d0; stroke-width: 2"/>
     <use xlink:href="#m74ac8997ca" x="355.452632" y="535.092224" style="fill: #4878d0; stroke: #4878d0; stroke-width: 2"/>
     <use xlink:href="#m74ac8997ca" x="398.170335" y="529.482852" style="fill: #4878d0; stroke: #4878d0; stroke-width: 2"/>
     <use xlink:href="#m74ac8997ca" x="440.888038" y="512.585826" style="fill: #4878d0; stroke: #4878d0; stroke-width: 2"/>
     <use xlink:href="#m74ac8997ca" x="483.605742" y="507.168267" style="fill: #4878d0; stroke: #4878d0; stroke-width: 2"/>
     <use xlink:href="#m74ac8997ca" x="526.323445" y="499.80871" style="fill: #4878d0; stroke: #4878d0; stroke-width: 2"/>
     <use xlink:href="#m74ac8997ca" x="569.041148" y="503.065185" style="fill: #4878d0; stroke: #4878d0; stroke-width: 2"/>
     <use xlink:href="#m74ac8997ca" x="611.758852" y="456.514888" style="fill: #4878d0; stroke: #4878d0; stroke-width: 2"/>
     <use xlink:href="#m74ac8997ca" x="654.476555" y="458.139854" style="fill: #4878d0; stroke: #4878d0; stroke-width: 2"/>
     <use xlink:href="#m74ac8997ca" x="697.194258" y="460.045286" style="fill: #4878d0; stroke: #4878d0; stroke-width: 2"/>
     <use xlink:href="#m74ac8997ca" x="739.911962" y="403.449539" style="fill: #4878d0; stroke: #4878d0; stroke-width: 2"/>
     <use xlink:href="#m74ac8997ca" x="782.629665" y="416.311377" style="fill: #4878d0; stroke: #4878d0; stroke-width: 2"/>
     <use xlink:href="#m74ac8997ca" x="825.347368" y="362.018689" style="fill: #4878d0; stroke: #4878d0; stroke-width: 2"/>
     <use xlink:href="#m74ac8997ca" x="868.065072" y="362.436877" style="fill: #4878d0; stroke: #4878d0; stroke-width: 2"/>
     <use xlink:href="#m74ac8997ca" x="910.782775" y="304.808234" style="fill: #4878d0; stroke: #4878d0; stroke-width: 2"/>
     <use xlink:href="#m74ac8997ca" x="953.500478" y="146.919828" style="fill: #4878d0; stroke: #4878d0; stroke-width: 2"/>
     <use xlink:href="#m74ac8997ca" x="996.218182" y="303.494598" style="fill: #4878d0; stroke: #4878d0; stroke-width: 2"/>
    </g>
   </g>
   <g id="patch_3">
    <path d="M 144 576.72 
L 144 77.76 
" style="fill: none; stroke: #262626; stroke-width: 2.5; stroke-linejoin: miter; stroke-linecap: square"/>
   </g>
   <g id="patch_4">
    <path d="M 1036.8 576.72 
L 1036.8 77.76 
" style="fill: none; stroke: #262626; stroke-width: 2.5; stroke-linejoin: miter; stroke-linecap: square"/>
   </g>
   <g id="patch_5">
    <path d="M 144 576.72 
L 1036.8 576.72 
" style="fill: none; stroke: #262626; stroke-width: 2.5; stroke-linejoin: miter; stroke-linecap: square"/>
   </g>
   <g id="patch_6">
    <path d="M 144 77.76 
L 1036.8 77.76 
" style="fill: none; stroke: #262626; stroke-width: 2.5; stroke-linejoin: miter; stroke-linecap: square"/>
   </g>
   <g id="text_16">
    <!-- Time per Iteration Under Perfect Information -->
    <g style="fill: #262626" transform="translate(289.936406 71.76) scale(0.27 -0.27)">
     <defs>
      <path id="DejaVuSans-55" d="M 556 4666 
L 1191 4666 
L 1191 1831 
Q 1191 1081 1462 751 
Q 1734 422 2344 422 
Q 2950 422 3222 751 
Q 3494 1081 3494 1831 
L 3494 4666 
L 4128 4666 
L 4128 1753 
Q 4128 841 3676 375 
Q 3225 -91 2344 -91 
Q 1459 -91 1007 375 
Q 556 841 556 1753 
L 556 4666 
z
" transform="scale(0.015625)"/>
      <path id="DejaVuSans-50" d="M 1259 4147 
L 1259 2394 
L 2053 2394 
Q 2494 2394 2734 2622 
Q 2975 2850 2975 3272 
Q 2975 3691 2734 3919 
Q 2494 4147 2053 4147 
L 1259 4147 
z
M 628 4666 
L 2053 4666 
Q 2838 4666 3239 4311 
Q 3641 3956 3641 3272 
Q 3641 2581 3239 2228 
Q 2838 1875 2053 1875 
L 1259 1875 
L 1259 0 
L 628 0 
L 628 4666 
z
" transform="scale(0.015625)"/>
     </defs>
     <use xlink:href="#DejaVuSans-54"/>
     <use xlink:href="#DejaVuSans-69" x="57.958984"/>
     <use xlink:href="#DejaVuSans-6d" x="85.742188"/>
     <use xlink:href="#DejaVuSans-65" x="183.154297"/>
     <use xlink:href="#DejaVuSans-20" x="244.677734"/>
     <use xlink:href="#DejaVuSans-70" x="276.464844"/>
     <use xlink:href="#DejaVuSans-65" x="339.941406"/>
     <use xlink:href="#DejaVuSans-72" x="401.464844"/>
     <use xlink:href="#DejaVuSans-20" x="442.578125"/>
     <use xlink:href="#DejaVuSans-49" x="474.365234"/>
     <use xlink:href="#DejaVuSans-74" x="503.857422"/>
     <use xlink:href="#DejaVuSans-65" x="543.066406"/>
     <use xlink:href="#DejaVuSans-72" x="604.589844"/>
     <use xlink:href="#DejaVuSans-61" x="645.703125"/>
     <use xlink:href="#DejaVuSans-74" x="706.982422"/>
     <use xlink:href="#DejaVuSans-69" x="746.191406"/>
     <use xlink:href="#DejaVuSans-6f" x="773.974609"/>
     <use xlink:href="#DejaVuSans-6e" x="835.15625"/>
     <use xlink:href="#DejaVuSans-20" x="898.535156"/>
     <use xlink:href="#DejaVuSans-55" x="930.322266"/>
     <use xlink:href="#DejaVuSans-6e" x="1003.515625"/>
     <use xlink:href="#DejaVuSans-64" x="1066.894531"/>
     <use xlink:href="#DejaVuSans-65" x="1130.371094"/>
     <use xlink:href="#DejaVuSans-72" x="1191.894531"/>
     <use xlink:href="#DejaVuSans-20" x="1233.007812"/>
     <use xlink:href="#DejaVuSans-50" x="1264.794922"/>
     <use xlink:href="#DejaVuSans-65" x="1321.472656"/>
     <use xlink:href="#DejaVuSans-72" x="1382.996094"/>
     <use xlink:href="#DejaVuSans-66" x="1424.109375"/>
     <use xlink:href="#DejaVuSans-65" x="1459.314453"/>
     <use xlink:href="#DejaVuSans-63" x="1520.837891"/>
     <use xlink:href="#DejaVuSans-74" x="1575.818359"/>
     <use xlink:href="#DejaVuSans-20" x="1615.027344"/>
     <use xlink:href="#DejaVuSans-49" x="1646.814453"/>
     <use xlink:href="#DejaVuSans-6e" x="1676.306641"/>
     <use xlink:href="#DejaVuSans-66" x="1739.685547"/>
     <use xlink:href="#DejaVuSans-6f" x="1774.890625"/>
     <use xlink:href="#DejaVuSans-72" x="1836.072266"/>
     <use xlink:href="#DejaVuSans-6d" x="1875.435547"/>
     <use xlink:href="#DejaVuSans-61" x="1972.847656"/>
     <use xlink:href="#DejaVuSans-74" x="2034.126953"/>
     <use xlink:href="#DejaVuSans-69" x="2073.335938"/>
     <use xlink:href="#DejaVuSans-6f" x="2101.119141"/>
     <use xlink:href="#DejaVuSans-6e" x="2162.300781"/>
    </g>
   </g>
  </g>
 </g>
 <defs>
  <clipPath id="pcdc5f4eb6d">
   <rect x="144" y="77.76" width="892.8" height="498.96"/>
  </clipPath>
 </defs>
</svg>
